<svg width="184" height="56" viewBox="0 0 184 56" fill="none" xmlns="http://www.w3.org/2000/svg">
<path d="M0 8C0 3.58172 3.58172 0 8 0H176C180.418 0 184 3.58172 184 8V48C184 52.4183 180.418 56 176 56H8C3.58172 56 0 52.4183 0 48V8Z" fill="black"/>
<path d="M30.2728 27.4414L20.0898 37.9696C20.2042 38.3695 20.4097 38.7383 20.6906 39.0479C20.9716 39.3574 21.3205 39.5995 21.7107 39.7555C22.101 39.9116 22.5222 39.9775 22.9423 39.9483C23.3623 39.9191 23.77 39.7955 24.1342 39.5869L35.592 33.1473L30.2728 27.4414Z" fill="#EA4335"/>
<path d="M40.571 25.6522L35.6162 22.8516L30.0391 27.6812L35.6389 33.1326L40.5559 30.362C40.9915 30.1369 41.3564 29.7984 41.6109 29.3833C41.8655 28.9682 42.0001 28.4922 42.0001 28.007C42.0001 27.5218 41.8655 27.0459 41.6109 26.6307C41.3564 26.2156 40.9915 25.8772 40.5559 25.6521L40.571 25.6522Z" fill="#FBBC04"/>
<path d="M20.0911 17.9922C20.0296 18.2167 19.999 18.4484 20 18.6811V37.2812C20.0006 37.5138 20.0312 37.7453 20.0911 37.9702L30.6232 27.7116L20.0911 17.9922Z" fill="#4285F4"/>
<path d="M30.3487 27.9808L35.6148 22.8515L24.1722 16.3819C23.7417 16.1331 23.252 16.0013 22.7531 16C21.515 15.9976 20.4265 16.8085 20.0898 17.9844L30.3487 27.9808Z" fill="#34A853"/>
<path d="M84.4123 12C84.3185 11.7129 84.1955 11.4551 84.0431 11.2266C83.8908 10.998 83.7101 10.8027 83.5012 10.6406C83.2941 10.4785 83.0578 10.3555 82.7922 10.2715C82.5285 10.1855 82.2394 10.1426 81.925 10.1426C81.4074 10.1426 80.9367 10.2764 80.5129 10.5439C80.089 10.8096 79.7521 11.2031 79.5021 11.7246C79.2521 12.2441 79.1271 12.8818 79.1271 13.6377C79.1271 14.3916 79.2531 15.0293 79.5051 15.5508C79.759 16.0703 80.1017 16.4639 80.5334 16.7314C80.967 16.9971 81.4533 17.1299 81.9924 17.1299C82.4924 17.1299 82.9328 17.0234 83.3137 16.8105C83.6965 16.5957 83.9953 16.292 84.2101 15.8994C84.425 15.5049 84.5324 15.04 84.5324 14.5049L84.8547 14.5752H82.2297V13.6377H85.5549V14.5752C85.5549 15.2939 85.4015 15.9189 85.0949 16.4502C84.7902 16.9814 84.3703 17.3926 83.8351 17.6836C83.3 17.9746 82.6857 18.1201 81.9924 18.1201C81.2189 18.1201 80.5402 17.9385 79.9562 17.5752C79.3722 17.21 78.9172 16.6924 78.591 16.0225C78.2668 15.3525 78.1047 14.5576 78.1047 13.6377C78.1047 12.9463 78.1974 12.3242 78.383 11.7715C78.5705 11.2187 78.8342 10.748 79.174 10.3594C79.5158 9.9707 79.9191 9.67285 80.384 9.46582C80.8508 9.25684 81.3644 9.15234 81.925 9.15234C82.384 9.15234 82.8127 9.22168 83.2111 9.36035C83.6115 9.49707 83.9679 9.69141 84.2804 9.94336C84.5949 10.1953 84.8576 10.4951 85.0685 10.8428C85.2795 11.1904 85.424 11.5762 85.5021 12H84.4123ZM89.9694 18.1377C89.3386 18.1377 88.7946 17.998 88.3376 17.7188C87.8825 17.4375 87.5319 17.0449 87.2858 16.541C87.0397 16.0371 86.9167 15.4492 86.9167 14.7773C86.9167 14.1074 87.0397 13.5166 87.2858 13.0049C87.5319 12.4912 87.8757 12.0908 88.3171 11.8037C88.7585 11.5146 89.2751 11.3701 89.8669 11.3701C90.2087 11.3701 90.5456 11.4268 90.8776 11.54C91.2096 11.6533 91.5114 11.8369 91.7829 12.0908C92.0563 12.3447 92.2741 12.6807 92.4362 13.0986C92.5983 13.5166 92.6794 14.0313 92.6794 14.6426V15.0674H87.6345V14.2002H91.6569C91.6569 13.8291 91.5837 13.499 91.4372 13.21C91.2907 12.9209 91.0827 12.6924 90.8132 12.5244C90.5456 12.3564 90.2302 12.2725 89.8669 12.2725C89.4665 12.2725 89.1208 12.3711 88.8298 12.5684C88.5387 12.7656 88.3151 13.0225 88.1589 13.3389C88.0026 13.6533 87.9245 13.9912 87.9245 14.3525V14.9326C87.9245 15.4268 88.0104 15.8447 88.1823 16.1865C88.3542 16.5283 88.5934 16.7881 88.9001 16.9658C89.2067 17.1436 89.5632 17.2324 89.9694 17.2324C90.2331 17.2324 90.4723 17.1953 90.6872 17.1211C90.902 17.0449 91.0876 16.9307 91.2438 16.7783C91.4001 16.626 91.5202 16.4365 91.6042 16.21L92.5768 16.4824C92.4753 16.8125 92.3034 17.1016 92.0612 17.3496C91.819 17.5977 91.5202 17.791 91.1647 17.9297C90.8112 18.0684 90.4128 18.1377 89.9694 18.1377ZM97.0604 11.4551V12.3076H93.6678V11.4551H97.0604ZM94.6551 9.8877H95.663V16.125C95.663 16.4082 95.7049 16.6201 95.7889 16.7607C95.8729 16.9014 95.9803 16.9951 96.1112 17.042C96.244 17.0889 96.3837 17.1123 96.5301 17.1123C96.6415 17.1123 96.7323 17.1064 96.8026 17.0947C96.8749 17.0811 96.9325 17.0703 96.9755 17.0625L97.1805 17.9648C97.1122 17.9902 97.0165 18.0166 96.8934 18.0439C96.7723 18.0713 96.618 18.085 96.4305 18.085C96.1454 18.085 95.8671 18.0244 95.5956 17.9033C95.3241 17.7803 95.0995 17.5938 94.9217 17.3438C94.744 17.0937 94.6551 16.7783 94.6551 16.3975V9.8877ZM101.951 18V11.4551H102.956V18H101.951ZM102.464 10.3623C102.267 10.3623 102.098 10.2959 101.957 10.1631C101.816 10.0303 101.746 9.87012 101.746 9.68262C101.746 9.49512 101.816 9.33496 101.957 9.20215C102.098 9.06738 102.267 9 102.464 9C102.659 9 102.827 9.06738 102.968 9.20215C103.108 9.33496 103.179 9.49512 103.179 9.68262C103.179 9.87012 103.108 10.0303 102.968 10.1631C102.827 10.2959 102.659 10.3623 102.464 10.3623ZM107.645 11.4551V12.3076H104.253V11.4551H107.645ZM105.24 9.8877H106.248V16.125C106.248 16.4082 106.29 16.6201 106.374 16.7607C106.458 16.9014 106.565 16.9951 106.696 17.042C106.829 17.0889 106.969 17.1123 107.115 17.1123C107.226 17.1123 107.317 17.1064 107.388 17.0947C107.46 17.0811 107.517 17.0703 107.56 17.0625L107.765 17.9648C107.697 17.9902 107.601 18.0166 107.478 18.0439C107.357 18.0713 107.203 18.085 107.015 18.085C106.73 18.085 106.452 18.0244 106.181 17.9033C105.909 17.7803 105.684 17.5938 105.507 17.3438C105.329 17.0937 105.24 16.7783 105.24 16.3975V9.8877ZM115.196 18.1377C114.604 18.1377 114.086 17.9971 113.641 17.7158C113.197 17.4346 112.851 17.041 112.601 16.5352C112.353 16.0293 112.229 15.4385 112.229 14.7627C112.229 14.0791 112.353 13.4834 112.601 12.9756C112.851 12.4678 113.197 12.0732 113.641 11.792C114.086 11.5107 114.604 11.3701 115.196 11.3701C115.786 11.3701 116.304 11.5107 116.749 11.792C117.194 12.0732 117.541 12.4678 117.789 12.9756C118.037 13.4834 118.161 14.0791 118.161 14.7627C118.161 15.4385 118.037 16.0293 117.789 16.5352C117.541 17.041 117.194 17.4346 116.749 17.7158C116.304 17.9971 115.786 18.1377 115.196 18.1377ZM115.196 17.2324C115.646 17.2324 116.015 17.1182 116.304 16.8896C116.593 16.6592 116.807 16.3564 116.945 15.9814C117.086 15.6064 117.156 15.2002 117.156 14.7627C117.156 14.3252 117.086 13.918 116.945 13.541C116.807 13.1621 116.593 12.8564 116.304 12.624C116.015 12.3896 115.646 12.2725 115.196 12.2725C114.747 12.2725 114.377 12.3896 114.086 12.624C113.797 12.8564 113.583 13.1621 113.444 13.541C113.306 13.918 113.236 14.3252 113.236 14.7627C113.236 15.2002 113.306 15.6064 113.444 15.9814C113.583 16.3564 113.797 16.6592 114.086 16.8896C114.377 17.1182 114.747 17.2324 115.196 17.2324ZM120.7 14.0625V18H119.695V11.4551H120.668V12.4775H120.753C120.905 12.1455 121.137 11.8779 121.45 11.6748C121.762 11.4717 122.167 11.3701 122.663 11.3701C123.104 11.3701 123.491 11.46 123.823 11.6396C124.157 11.8193 124.416 12.0918 124.599 12.457C124.785 12.8223 124.878 13.2832 124.878 13.8398V18H123.873V13.9102C123.873 13.3945 123.739 12.9932 123.471 12.7061C123.204 12.417 122.838 12.2725 122.373 12.2725C122.051 12.2725 121.763 12.3428 121.511 12.4834C121.261 12.6221 121.063 12.8252 120.917 13.0928C120.772 13.3584 120.7 13.6816 120.7 14.0625Z" fill="white"/>
<path d="M60.7068 34.0447C60.5832 33.657 60.417 33.3097 60.2082 33.0028C60.0036 32.6918 59.7586 32.4276 59.4731 32.2102C59.1876 31.9886 58.8616 31.8203 58.4951 31.7053C58.1329 31.5902 57.7345 31.5327 57.2998 31.5327C56.5626 31.5327 55.8978 31.7223 55.3055 32.1016C54.7132 32.4808 54.2444 33.0369 53.8992 33.7699C53.5583 34.4986 53.3879 35.3913 53.3879 36.4482C53.3879 37.5092 53.5605 38.4062 53.9056 39.1392C54.2508 39.8722 54.7238 40.4283 55.3247 40.8075C55.9255 41.1868 56.6095 41.3764 57.3765 41.3764C58.0882 41.3764 58.7082 41.2315 59.2366 40.9418C59.7693 40.652 60.1805 40.2429 60.4703 39.7145C60.7643 39.1818 60.9113 38.5554 60.9113 37.8352L61.4227 37.9311H57.6769V36.3011H62.8225V37.7905C62.8225 38.8899 62.5882 39.8445 62.1194 40.6541C61.6549 41.4595 61.0115 42.0817 60.189 42.5206C59.3708 42.9595 58.4333 43.179 57.3765 43.179C56.1919 43.179 55.1521 42.9062 54.2572 42.3608C53.3666 41.8153 52.672 41.0419 52.1734 40.0405C51.6748 39.0348 51.4255 37.8416 51.4255 36.4609C51.4255 35.4169 51.5704 34.4794 51.8602 33.6484C52.1499 32.8175 52.5569 32.1122 53.0811 31.5327C53.6095 30.9489 54.2295 30.5036 54.9411 30.1967C55.657 29.8857 56.439 29.7301 57.287 29.7301C57.9944 29.7301 58.6528 29.8345 59.2622 30.0433C59.8758 30.2521 60.4213 30.5483 60.8985 30.9318C61.3801 31.3153 61.7785 31.7713 62.0938 32.2997C62.4092 32.8239 62.6222 33.4055 62.733 34.0447H60.7068ZM69.3121 43.1982C68.3916 43.1982 67.5883 42.9872 66.9023 42.5653C66.2162 42.1435 65.6835 41.5533 65.3042 40.7947C64.925 40.0362 64.7354 39.1499 64.7354 38.1357C64.7354 37.1172 64.925 36.2266 65.3042 35.4638C65.6835 34.701 66.2162 34.1087 66.9023 33.6868C67.5883 33.2649 68.3916 33.054 69.3121 33.054C70.2325 33.054 71.0358 33.2649 71.7219 33.6868C72.4079 34.1087 72.9406 34.701 73.3199 35.4638C73.6991 36.2266 73.8888 37.1172 73.8888 38.1357C73.8888 39.1499 73.6991 40.0362 73.3199 40.7947C72.9406 41.5533 72.4079 42.1435 71.7219 42.5653C71.0358 42.9872 70.2325 43.1982 69.3121 43.1982ZM69.3184 41.5938C69.915 41.5938 70.4094 41.4361 70.8014 41.1207C71.1934 40.8054 71.4832 40.3857 71.6707 39.8615C71.8625 39.3374 71.9584 38.7599 71.9584 38.1293C71.9584 37.5028 71.8625 36.9276 71.6707 36.4034C71.4832 35.875 71.1934 35.451 70.8014 35.1314C70.4094 34.8118 69.915 34.652 69.3184 34.652C68.7176 34.652 68.219 34.8118 67.8227 35.1314C67.4307 35.451 67.1388 35.875 66.947 36.4034C66.7595 36.9276 66.6657 37.5028 66.6657 38.1293C66.6657 38.7599 66.7595 39.3374 66.947 39.8615C67.1388 40.3857 67.4307 40.8054 67.8227 41.1207C68.219 41.4361 68.7176 41.5938 69.3184 41.5938ZM80.1578 43.1982C79.2373 43.1982 78.434 42.9872 77.748 42.5653C77.0619 42.1435 76.5292 41.5533 76.1499 40.7947C75.7707 40.0362 75.5811 39.1499 75.5811 38.1357C75.5811 37.1172 75.7707 36.2266 76.1499 35.4638C76.5292 34.701 77.0619 34.1087 77.748 33.6868C78.434 33.2649 79.2373 33.054 80.1578 33.054C81.0782 33.054 81.8815 33.2649 82.5676 33.6868C83.2536 34.1087 83.7863 34.701 84.1656 35.4638C84.5448 36.2266 84.7345 37.1172 84.7345 38.1357C84.7345 39.1499 84.5448 40.0362 84.1656 40.7947C83.7863 41.5533 83.2536 42.1435 82.5676 42.5653C81.8815 42.9872 81.0782 43.1982 80.1578 43.1982ZM80.1642 41.5938C80.7607 41.5938 81.2551 41.4361 81.6471 41.1207C82.0392 40.8054 82.3289 40.3857 82.5164 39.8615C82.7082 39.3374 82.8041 38.7599 82.8041 38.1293C82.8041 37.5028 82.7082 36.9276 82.5164 36.4034C82.3289 35.875 82.0392 35.451 81.6471 35.1314C81.2551 34.8118 80.7607 34.652 80.1642 34.652C79.5633 34.652 79.0647 34.8118 78.6684 35.1314C78.2764 35.451 77.9845 35.875 77.7927 36.4034C77.6052 36.9276 77.5115 37.5028 77.5115 38.1293C77.5115 38.7599 77.6052 39.3374 77.7927 39.8615C77.9845 40.3857 78.2764 40.8054 78.6684 41.1207C79.0647 41.4361 79.5633 41.5938 80.1642 41.5938ZM90.9843 46.8864C90.2045 46.8864 89.5333 46.7841 88.9708 46.5795C88.4126 46.375 87.9566 46.1044 87.6029 45.7678C87.2492 45.4311 86.985 45.0625 86.8103 44.6619L88.453 43.9844C88.5681 44.1719 88.7215 44.37 88.9133 44.5788C89.1093 44.7919 89.3735 44.973 89.7059 45.1222C90.0425 45.2713 90.4751 45.3459 91.0035 45.3459C91.7279 45.3459 92.3266 45.169 92.7996 44.8153C93.2726 44.4659 93.5091 43.9077 93.5091 43.1406V41.2102H93.3877C93.2726 41.419 93.1064 41.6513 92.8891 41.907C92.676 42.1626 92.382 42.3842 92.007 42.5717C91.632 42.7592 91.1441 42.853 90.5432 42.853C89.7677 42.853 89.0688 42.6719 88.4466 42.3097C87.8287 41.9432 87.3387 41.4041 86.9765 40.6925C86.6185 39.9766 86.4395 39.0966 86.4395 38.0526C86.4395 37.0085 86.6164 36.1136 86.9701 35.3679C87.328 34.6222 87.8181 34.0511 88.4403 33.6548C89.0624 33.2543 89.7677 33.054 90.556 33.054C91.1654 33.054 91.6576 33.1562 92.0326 33.3608C92.4076 33.5611 92.6995 33.7955 92.9083 34.0639C93.1214 34.3324 93.2854 34.5689 93.4005 34.7734H93.5411V33.1818H95.414V43.2173C95.414 44.0611 95.218 44.7536 94.8259 45.2947C94.4339 45.8359 93.9033 46.2365 93.2343 46.4964C92.5695 46.7564 91.8195 46.8864 90.9843 46.8864ZM90.9651 41.2678C91.5148 41.2678 91.9793 41.1399 92.3586 40.8842C92.7421 40.6243 93.0319 40.2536 93.2279 39.772C93.4282 39.2862 93.5283 38.7045 93.5283 38.027C93.5283 37.3665 93.4303 36.7848 93.2343 36.282C93.0383 35.7791 92.7506 35.3871 92.3714 35.1058C91.9921 34.8203 91.5233 34.6776 90.9651 34.6776C90.3898 34.6776 89.9104 34.8267 89.5269 35.125C89.1434 35.419 88.8536 35.8196 88.6576 36.3267C88.4658 36.8338 88.3699 37.4006 88.3699 38.027C88.3699 38.6705 88.468 39.2351 88.664 39.7209C88.86 40.2067 89.1498 40.5859 89.5333 40.8587C89.9211 41.1314 90.3983 41.2678 90.9651 41.2678ZM99.8884 29.9091V43H97.9772V29.9091H99.8884ZM106.691 43.1982C105.724 43.1982 104.891 42.9915 104.192 42.5781C103.497 42.1605 102.96 41.5746 102.581 40.8203C102.206 40.0618 102.019 39.1733 102.019 38.1548C102.019 37.1491 102.206 36.2628 102.581 35.4957C102.96 34.7287 103.489 34.13 104.166 33.6996C104.848 33.2692 105.645 33.054 106.557 33.054C107.111 33.054 107.648 33.1456 108.168 33.3288C108.688 33.5121 109.154 33.7997 109.568 34.1918C109.981 34.5838 110.307 35.093 110.546 35.7195C110.784 36.3416 110.903 37.098 110.903 37.9886V38.6662H103.099V37.2344H109.031C109.031 36.7315 108.928 36.2862 108.724 35.8984C108.519 35.5064 108.232 35.1974 107.861 34.9716C107.494 34.7457 107.064 34.6328 106.57 34.6328C106.033 34.6328 105.564 34.7649 105.163 35.0291C104.767 35.2891 104.46 35.63 104.243 36.0518C104.03 36.4695 103.923 36.9233 103.923 37.4134V38.532C103.923 39.1882 104.038 39.7464 104.269 40.2067C104.503 40.6669 104.829 41.0185 105.247 41.2614C105.664 41.5 106.152 41.6193 106.71 41.6193C107.073 41.6193 107.403 41.5682 107.701 41.4659C107.999 41.3594 108.257 41.2017 108.475 40.9929C108.692 40.7841 108.858 40.5263 108.973 40.2195L110.782 40.5455C110.637 41.0781 110.377 41.5447 110.002 41.9453C109.631 42.3416 109.165 42.6506 108.602 42.8722C108.044 43.0895 107.407 43.1982 106.691 43.1982ZM117.941 43V29.9091H122.607C123.626 29.9091 124.47 30.0945 125.139 30.4652C125.808 30.8359 126.308 31.343 126.641 31.9865C126.973 32.6257 127.139 33.3459 127.139 34.147C127.139 34.9524 126.971 35.6768 126.634 36.3203C126.302 36.9595 125.799 37.4666 125.126 37.8416C124.457 38.2124 123.615 38.3977 122.601 38.3977H119.392V36.723H122.422C123.065 36.723 123.587 36.6122 123.988 36.3906C124.389 36.1648 124.683 35.858 124.87 35.4702C125.058 35.0824 125.151 34.6413 125.151 34.147C125.151 33.6527 125.058 33.2138 124.87 32.8303C124.683 32.4467 124.386 32.1463 123.982 31.929C123.581 31.7116 123.053 31.603 122.396 31.603H119.916V43H117.941ZM131.213 29.9091V43H129.301V29.9091H131.213ZM136.641 43.2173C136.019 43.2173 135.456 43.1023 134.954 42.8722C134.451 42.6378 134.052 42.299 133.758 41.8558C133.468 41.4126 133.324 40.8693 133.324 40.2259C133.324 39.6719 133.43 39.2159 133.643 38.858C133.856 38.5 134.144 38.2166 134.506 38.0078C134.868 37.799 135.273 37.6413 135.721 37.5348C136.168 37.4283 136.624 37.3473 137.089 37.2919C137.677 37.2237 138.154 37.1683 138.52 37.1257C138.887 37.0788 139.153 37.0043 139.319 36.902C139.486 36.7997 139.569 36.6335 139.569 36.4034V36.3587C139.569 35.8004 139.411 35.3679 139.096 35.0611C138.785 34.7543 138.32 34.6009 137.702 34.6009C137.059 34.6009 136.552 34.7436 136.181 35.0291C135.814 35.3104 135.561 35.6236 135.42 35.9688L133.624 35.5597C133.837 34.9631 134.148 34.4815 134.557 34.1151C134.971 33.7443 135.446 33.4759 135.983 33.3097C136.52 33.1392 137.084 33.054 137.677 33.054C138.069 33.054 138.484 33.1009 138.923 33.1946C139.366 33.2841 139.78 33.4503 140.163 33.6932C140.551 33.9361 140.868 34.2834 141.116 34.7351C141.363 35.1825 141.486 35.7642 141.486 36.4801V43H139.62V41.6577H139.543C139.419 41.9048 139.234 42.1477 138.987 42.3864C138.74 42.625 138.422 42.8232 138.035 42.9808C137.647 43.1385 137.182 43.2173 136.641 43.2173ZM137.057 41.6832C137.585 41.6832 138.037 41.5788 138.412 41.37C138.791 41.1612 139.079 40.8885 139.275 40.5518C139.475 40.2109 139.575 39.8466 139.575 39.4588V38.1932C139.507 38.2614 139.375 38.3253 139.179 38.3849C138.987 38.4403 138.767 38.4893 138.52 38.532C138.273 38.5703 138.032 38.6065 137.798 38.6406C137.564 38.6705 137.368 38.696 137.21 38.7173C136.839 38.7642 136.5 38.843 136.194 38.9538C135.891 39.0646 135.648 39.2244 135.465 39.4332C135.286 39.6378 135.196 39.9105 135.196 40.2514C135.196 40.7244 135.371 41.0824 135.721 41.3253C136.07 41.5639 136.515 41.6832 137.057 41.6832ZM144.888 46.6818C144.603 46.6818 144.343 46.6584 144.109 46.6115C143.874 46.5689 143.699 46.522 143.584 46.4709L144.045 44.9048C144.394 44.9986 144.705 45.0391 144.978 45.0263C145.251 45.0135 145.491 44.9112 145.7 44.7195C145.913 44.5277 146.101 44.2145 146.263 43.7798L146.499 43.1278L142.907 33.1818H144.952L147.439 40.8011H147.541L150.028 33.1818H152.079L148.033 44.3104C147.846 44.8217 147.607 45.2543 147.317 45.608C147.028 45.9659 146.682 46.2344 146.282 46.4134C145.881 46.5923 145.417 46.6818 144.888 46.6818Z" fill="white"/>
</svg>
