<svg width="175" height="56" viewBox="0 0 175 56" fill="none" xmlns="http://www.w3.org/2000/svg">
<rect width="175" height="56" rx="5" fill="black"/>
<path d="M88.325 30.4518C85.2761 30.4518 82.7911 32.9564 82.7911 36.406C82.7911 39.8346 85.2761 42.3602 88.325 42.3602C91.3752 42.3602 93.8602 39.8346 93.8602 36.406C93.8589 32.9564 91.3739 30.4518 88.325 30.4518ZM88.325 40.0166C86.654 40.0166 85.2139 38.5284 85.2139 36.4074C85.2139 34.264 86.6553 32.7982 88.325 32.7982C89.9959 32.7982 91.4361 34.264 91.4361 36.4074C91.4361 38.527 89.9959 40.0166 88.325 40.0166ZM76.2513 30.4518C73.2024 30.4518 70.7174 32.9564 70.7174 36.406C70.7174 39.8346 73.2024 42.3602 76.2513 42.3602C79.3015 42.3602 81.7865 39.8346 81.7865 36.406C81.7865 32.9564 79.3015 30.4518 76.2513 30.4518ZM76.2513 40.0166C74.5803 40.0166 73.1402 38.5284 73.1402 36.4074C73.1402 34.264 74.5816 32.7982 76.2513 32.7982C77.9222 32.7982 79.3624 34.264 79.3624 36.4074C79.3637 38.527 77.9222 40.0166 76.2513 40.0166ZM61.8909 32.2802V34.8058H67.4883C67.3211 36.2268 66.8829 37.2642 66.214 37.9852C65.4 38.8644 64.1257 39.8346 61.8909 39.8346C58.4453 39.8346 55.7516 36.8344 55.7516 33.1132C55.7516 29.392 58.4453 26.3918 61.8909 26.3918C63.7498 26.3918 65.107 27.1814 66.1091 28.1964L67.7592 26.4142C66.3592 24.9708 64.5016 23.8662 61.8909 23.8662C57.1711 23.8662 53.2031 28.0158 53.2031 33.1132C53.2031 38.2106 57.1711 42.3602 61.8909 42.3602C64.4381 42.3602 66.3605 41.4572 67.8629 39.766C69.4081 38.0972 69.8891 35.7508 69.8891 33.8566C69.8891 33.2714 69.8476 32.7296 69.7633 32.2788H61.8909V32.2802ZM120.623 34.2416C120.165 32.9116 118.765 30.4518 115.904 30.4518C113.063 30.4518 110.703 32.8654 110.703 36.406C110.703 39.7436 113.043 42.3602 116.175 42.3602C118.701 42.3602 120.163 40.6914 120.77 39.7212L118.89 38.3674C118.264 39.36 117.407 40.0138 116.175 40.0138C114.943 40.0138 114.066 39.4048 113.502 38.2092L120.874 34.9164L120.623 34.2416ZM113.105 36.2268C113.043 33.9252 114.755 32.7534 115.988 32.7534C116.948 32.7534 117.763 33.2728 118.035 34.0162L113.105 36.2268ZM107.112 42.0004H109.534V24.499H107.112V42.0004ZM103.143 31.7832H103.06C102.517 31.0832 101.472 30.4518 100.158 30.4518C97.4003 30.4518 94.8739 33.0684 94.8739 36.4298C94.8739 39.7674 97.4003 42.3616 100.158 42.3616C101.473 42.3616 102.517 41.7302 103.06 41.0092H103.143V41.866C103.143 44.1438 102.015 45.3618 100.199 45.3618C98.7161 45.3618 97.797 44.2124 97.4211 43.2422L95.312 44.19C95.9174 45.7678 97.5248 47.7082 100.199 47.7082C103.039 47.7082 105.441 45.9036 105.441 41.5048V30.8144H103.144V31.7832H103.143ZM100.366 40.0166C98.6953 40.0166 97.2966 38.5046 97.2966 36.4298C97.2966 34.3312 98.6953 32.7982 100.366 32.7982C102.015 32.7982 103.31 34.3312 103.31 36.4298C103.31 38.5046 102.015 40.0166 100.366 40.0166ZM131.971 24.499H126.176V42.0004H128.593V35.37H131.97C134.651 35.37 137.287 33.2742 137.287 29.9352C137.287 26.5962 134.652 24.499 131.971 24.499ZM132.033 32.934H128.593V26.935H132.033C133.842 26.935 134.868 28.552 134.868 29.9352C134.868 31.2904 133.842 32.934 132.033 32.934ZM146.982 30.421C145.231 30.421 143.418 31.254 142.667 33.1006L144.814 34.068C145.273 33.1006 146.128 32.7842 147.024 32.7842C148.275 32.7842 149.546 33.5948 149.567 35.0354V35.216C149.129 34.9458 148.191 34.5412 147.045 34.5412C144.731 34.5412 142.374 35.9146 142.374 38.4808C142.374 40.823 144.272 42.3308 146.398 42.3308C148.023 42.3308 148.92 41.5426 149.483 40.6186H149.566V41.9696H151.902V35.2594C151.903 32.1542 149.754 30.421 146.982 30.421ZM146.689 40.0124C145.899 40.0124 144.793 39.584 144.793 38.5256C144.793 37.1746 146.17 36.6566 147.358 36.6566C148.42 36.6566 148.922 36.9044 149.567 37.2418C149.379 38.8644 148.087 40.0124 146.689 40.0124ZM160.408 30.8032L157.635 38.3912H157.552L154.675 30.8032H152.069L156.384 41.4082L153.924 47.3078H156.447L163.098 30.8032H160.408ZM138.623 42.0004H141.04V24.499H138.623V42.0004Z" fill="white"/>
<path d="M61.4688 14.3405C61.4688 15.5137 61.1473 16.4475 60.5031 17.1447C59.7719 17.9735 58.8179 18.3879 57.646 18.3879C56.5234 18.3879 55.5681 17.9679 54.7838 17.1279C53.9982 16.2865 53.6055 15.2449 53.6055 14.0017C53.6055 12.7571 53.9982 11.7155 54.7838 10.8755C55.5681 10.0341 56.5234 9.61406 57.646 9.61406C58.2034 9.61406 58.7362 9.73166 59.2418 9.96546C59.7486 10.2007 60.1544 10.5129 60.4577 10.9035L59.7745 11.6427C59.2599 10.9777 58.5508 10.6459 57.6447 10.6459C56.8255 10.6459 56.1177 10.9567 55.5201 11.5783C54.9225 12.1999 54.6244 13.0077 54.6244 14.0003C54.6244 14.9929 54.9225 15.8007 55.5201 16.4223C56.1177 17.0439 56.8255 17.3547 57.6447 17.3547C58.5132 17.3547 59.2379 17.0425 59.8173 16.4167C60.1932 16.0093 60.411 15.4423 60.4694 14.7157H57.6447V13.7063H61.4131C61.4519 13.9261 61.4688 14.1375 61.4688 14.3405Z" fill="white"/>
<path d="M67.4448 10.8321H63.9034V13.4949H67.0974V14.5043H63.9034V17.1671H67.4448V18.2003H62.9039V9.80034H67.4448V10.8321Z" fill="white"/>
<path d="M71.659 18.2003H70.6595V10.8321H68.4869V9.80034H73.8316V10.8321H71.659V18.2003Z" fill="white"/>
<path d="M77.6983 18.2003V9.80034H78.6978V18.2003H77.6983Z" fill="white"/>
<path d="M83.13 18.2003H82.1306V10.8321H79.958V9.80034H85.3026V10.8321H83.13V18.2003Z" fill="white"/>
<path d="M95.4199 17.1153C94.6551 17.9637 93.7049 18.3879 92.5681 18.3879C91.4312 18.3879 90.481 17.9637 89.7175 17.1153C88.9527 16.2669 88.5716 15.2281 88.5716 14.0003C88.5716 12.7725 88.9527 11.7337 89.7175 10.8853C90.481 10.0369 91.4312 9.61133 92.5681 9.61133C93.6984 9.61133 94.6473 10.0383 95.4148 10.8909C96.1822 11.7435 96.5659 12.7795 96.5659 14.0003C96.5659 15.2281 96.1835 16.2669 95.4199 17.1153ZM90.4551 16.4111C91.0307 17.0411 91.7346 17.3547 92.5681 17.3547C93.4016 17.3547 94.1068 17.0397 94.681 16.4111C95.2566 15.7811 95.5457 14.9775 95.5457 14.0003C95.5457 13.0231 95.2566 12.2195 94.681 11.5895C94.1068 10.9595 93.4016 10.6459 92.5681 10.6459C91.7346 10.6459 91.0307 10.9609 90.4551 11.5895C89.8809 12.2195 89.5918 13.0231 89.5918 14.0003C89.5918 14.9775 89.8809 15.7811 90.4551 16.4111Z" fill="white"/>
<path d="M97.9685 18.2003V9.80034H99.1844L102.964 16.3341H103.007L102.964 14.7157V9.80034H103.964V18.2003H102.92L98.9653 11.3487H98.9226L98.9653 12.9671V18.2003H97.9685Z" fill="white"/>
<path d="M61.4688 14.3405C61.4688 15.5137 61.1473 16.4475 60.5031 17.1447C59.7719 17.9735 58.8179 18.3879 57.646 18.3879C56.5234 18.3879 55.5681 17.9679 54.7838 17.1279C53.9982 16.2865 53.6055 15.2449 53.6055 14.0017C53.6055 12.7571 53.9982 11.7155 54.7838 10.8755C55.5681 10.0341 56.5234 9.61406 57.646 9.61406C58.2034 9.61406 58.7362 9.73166 59.2418 9.96546C59.7486 10.2007 60.1544 10.5129 60.4577 10.9035L59.7745 11.6427C59.2599 10.9777 58.5508 10.6459 57.6447 10.6459C56.8255 10.6459 56.1177 10.9567 55.5201 11.5783C54.9225 12.1999 54.6244 13.0077 54.6244 14.0003C54.6244 14.9929 54.9225 15.8007 55.5201 16.4223C56.1177 17.0439 56.8255 17.3547 57.6447 17.3547C58.5132 17.3547 59.2379 17.0425 59.8173 16.4167C60.1932 16.0093 60.411 15.4423 60.4694 14.7157H57.6447V13.7063H61.4131C61.4519 13.9261 61.4688 14.1375 61.4688 14.3405Z" stroke="white" stroke-width="0.2" stroke-miterlimit="10"/>
<path d="M67.4448 10.8321H63.9034V13.4949H67.0974V14.5043H63.9034V17.1671H67.4448V18.2003H62.9039V9.80034H67.4448V10.8321Z" stroke="white" stroke-width="0.2" stroke-miterlimit="10"/>
<path d="M71.659 18.2003H70.6595V10.8321H68.4869V9.80034H73.8316V10.8321H71.659V18.2003Z" stroke="white" stroke-width="0.2" stroke-miterlimit="10"/>
<path d="M77.6983 18.2003V9.80034H78.6978V18.2003H77.6983Z" stroke="white" stroke-width="0.2" stroke-miterlimit="10"/>
<path d="M83.13 18.2003H82.1306V10.8321H79.958V9.80034H85.3026V10.8321H83.13V18.2003Z" stroke="white" stroke-width="0.2" stroke-miterlimit="10"/>
<path d="M95.4199 17.1153C94.6551 17.9637 93.7049 18.3879 92.5681 18.3879C91.4312 18.3879 90.481 17.9637 89.7175 17.1153C88.9527 16.2669 88.5716 15.2281 88.5716 14.0003C88.5716 12.7725 88.9527 11.7337 89.7175 10.8853C90.481 10.0369 91.4312 9.61133 92.5681 9.61133C93.6984 9.61133 94.6473 10.0383 95.4148 10.8909C96.1822 11.7435 96.5659 12.7795 96.5659 14.0003C96.5659 15.2281 96.1835 16.2669 95.4199 17.1153ZM90.4551 16.4111C91.0307 17.0411 91.7346 17.3547 92.5681 17.3547C93.4016 17.3547 94.1068 17.0397 94.681 16.4111C95.2566 15.7811 95.5457 14.9775 95.5457 14.0003C95.5457 13.0231 95.2566 12.2195 94.681 11.5895C94.1068 10.9595 93.4016 10.6459 92.5681 10.6459C91.7346 10.6459 91.0307 10.9609 90.4551 11.5895C89.8809 12.2195 89.5918 13.0231 89.5918 14.0003C89.5918 14.9775 89.8809 15.7811 90.4551 16.4111Z" stroke="white" stroke-width="0.2" stroke-miterlimit="10"/>
<path d="M97.9685 18.2003V9.80034H99.1844L102.964 16.3341H103.007L102.964 14.7157V9.80034H103.964V18.2003H102.92L98.9653 11.3487H98.9226L98.9653 12.9671V18.2003H97.9685Z" stroke="white" stroke-width="0.2" stroke-miterlimit="10"/>
<g filter="url(#filter0_ii_7007_15652)">
<path d="M13.526 10.5534C13.1487 10.9846 12.9258 11.6538 12.9258 12.5204V43.4828C12.9258 44.3508 13.1487 45.0186 13.526 45.4498L13.6219 45.5506L29.6817 28.206V28.0016V27.7972L13.6219 10.4512L13.526 10.5534Z" fill="url(#paint0_linear_7007_15652)"/>
<path d="M35.036 33.9898L29.6836 28.2064V28.002V27.7976L35.0373 22.0156L35.1579 22.0898L41.5006 25.9818C43.3116 27.0934 43.3116 28.912 41.5006 30.025L35.1579 33.917L35.036 33.9898Z" fill="url(#paint1_linear_7007_15652)"/>
<g filter="url(#filter1_i_7007_15652)">
<path d="M35.1573 33.9155L29.6818 28.002L13.5273 45.4501C14.1236 46.1333 15.1101 46.2173 16.221 45.5369L35.1573 33.9155Z" fill="url(#paint2_linear_7007_15652)"/>
</g>
<path d="M35.1573 22.0886L16.221 10.4686C15.1101 9.78675 14.1236 9.87215 13.5273 10.5554L29.6831 28.0036L35.1573 22.0886Z" fill="url(#paint3_linear_7007_15652)"/>
</g>
<defs>
<filter id="filter0_ii_7007_15652" x="12.9258" y="9.99805" width="29.9336" height="36.0088" filterUnits="userSpaceOnUse" color-interpolation-filters="sRGB">
<feFlood flood-opacity="0" result="BackgroundImageFix"/>
<feBlend mode="normal" in="SourceGraphic" in2="BackgroundImageFix" result="shape"/>
<feColorMatrix in="SourceAlpha" type="matrix" values="0 0 0 0 0 0 0 0 0 0 0 0 0 0 0 0 0 0 127 0" result="hardAlpha"/>
<feOffset dy="-0.15"/>
<feComposite in2="hardAlpha" operator="arithmetic" k2="-1" k3="1"/>
<feColorMatrix type="matrix" values="0 0 0 0 0 0 0 0 0 0 0 0 0 0 0 0 0 0 0.12 0"/>
<feBlend mode="normal" in2="shape" result="effect1_innerShadow_7007_15652"/>
<feColorMatrix in="SourceAlpha" type="matrix" values="0 0 0 0 0 0 0 0 0 0 0 0 0 0 0 0 0 0 127 0" result="hardAlpha"/>
<feOffset dy="0.15"/>
<feComposite in2="hardAlpha" operator="arithmetic" k2="-1" k3="1"/>
<feColorMatrix type="matrix" values="0 0 0 0 1 0 0 0 0 1 0 0 0 0 1 0 0 0 0.25 0"/>
<feBlend mode="normal" in2="effect1_innerShadow_7007_15652" result="effect2_innerShadow_7007_15652"/>
</filter>
<filter id="filter1_i_7007_15652" x="13.5273" y="28.002" width="21.6289" height="18.0049" filterUnits="userSpaceOnUse" color-interpolation-filters="sRGB">
<feFlood flood-opacity="0" result="BackgroundImageFix"/>
<feBlend mode="normal" in="SourceGraphic" in2="BackgroundImageFix" result="shape"/>
<feColorMatrix in="SourceAlpha" type="matrix" values="0 0 0 0 0 0 0 0 0 0 0 0 0 0 0 0 0 0 127 0" result="hardAlpha"/>
<feOffset dy="-0.15"/>
<feComposite in2="hardAlpha" operator="arithmetic" k2="-1" k3="1"/>
<feColorMatrix type="matrix" values="0 0 0 0 0 0 0 0 0 0 0 0 0 0 0 0 0 0 0.08 0"/>
<feBlend mode="normal" in2="shape" result="effect1_innerShadow_7007_15652"/>
</filter>
<linearGradient id="paint0_linear_7007_15652" x1="28.2581" y1="12.1928" x2="4.83273" y2="33.883" gradientUnits="userSpaceOnUse">
<stop stop-color="#00A0FF"/>
<stop offset="0.0066" stop-color="#00A1FF"/>
<stop offset="0.2601" stop-color="#00BEFF"/>
<stop offset="0.5122" stop-color="#00D2FF"/>
<stop offset="0.7604" stop-color="#00DFFF"/>
<stop offset="1" stop-color="#00E3FF"/>
</linearGradient>
<linearGradient id="paint1_linear_7007_15652" x1="43.8579" y1="28.002" x2="12.4929" y2="28.002" gradientUnits="userSpaceOnUse">
<stop stop-color="#FFE000"/>
<stop offset="0.4087" stop-color="#FFBD00"/>
<stop offset="0.7754" stop-color="#FFA500"/>
<stop offset="1" stop-color="#FF9C00"/>
</linearGradient>
<linearGradient id="paint2_linear_7007_15652" x1="32.1838" y1="31.2134" x2="0.41601" y2="60.628" gradientUnits="userSpaceOnUse">
<stop stop-color="#FF3A44"/>
<stop offset="1" stop-color="#C31162"/>
</linearGradient>
<linearGradient id="paint3_linear_7007_15652" x1="9.45879" y1="0.248272" x2="23.644" y2="13.3827" gradientUnits="userSpaceOnUse">
<stop stop-color="#32A071"/>
<stop offset="0.0685" stop-color="#2DA771"/>
<stop offset="0.4762" stop-color="#15CF74"/>
<stop offset="0.8009" stop-color="#06E775"/>
<stop offset="1" stop-color="#00F076"/>
</linearGradient>
</defs>
</svg>
