<svg width="23" height="31" viewBox="0 0 23 31" fill="none" xmlns="http://www.w3.org/2000/svg">
<path d="M19.1132 16.2125C19.1412 13.8591 20.3072 11.6323 22.1571 10.3996C20.9901 8.59317 19.0354 7.44783 17.0018 7.37887C14.8328 7.1321 12.7301 8.78563 11.6248 8.78563C10.4981 8.78563 8.7963 7.40337 6.96378 7.44423C4.57516 7.52788 2.34837 8.99981 1.18626 11.2632C-1.31183 15.951 0.551518 22.8405 2.94447 26.6298C4.14172 28.4853 5.54096 30.5579 7.37183 30.4844C9.16345 30.4038 9.83258 29.2461 11.9952 29.2461C14.1378 29.2461 14.7656 30.4844 16.6336 30.4377C18.5561 30.4038 19.7673 28.5739 20.9226 26.7009C21.7828 25.3788 22.4447 23.9175 22.8839 22.3713C20.6246 21.3356 19.1158 18.8713 19.1132 16.2125Z" fill="white"/>
<path d="M15.5848 4.88687C16.633 3.52298 17.1494 1.76993 17.0244 0C15.4229 0.182309 13.9436 1.01189 12.8813 2.32345C11.8424 3.60492 11.3018 5.32712 11.404 7.0294C13.006 7.04728 14.5809 6.24018 15.5848 4.88687Z" fill="white"/>
</svg>
