<svg width="62" height="62" viewBox="0 0 62 62" fill="none" xmlns="http://www.w3.org/2000/svg">
<rect x="15.0312" width="48" height="48" rx="10" transform="rotate(15 15.0312 0)" fill="#44CE2D"/>
<foreignObject x="-16" y="-2.60547" width="80" height="80"><div xmlns="http://www.w3.org/1999/xhtml" style="backdrop-filter:blur(8px);clip-path:url(#bgblur_0_6592_31894_clip_path);height:100%;width:100%"></div></foreignObject><g data-figma-bg-blur-radius="16">
<rect y="13.3945" width="48" height="48" rx="10" fill="white" fill-opacity="0.6"/>
<rect x="0.5" y="13.8945" width="47" height="47" rx="9.5" stroke="white" stroke-opacity="0.6"/>
<path d="M32 47.3945V44.3945C32 41.5665 32 40.1515 31.121 39.2735C30.243 38.3945 28.828 38.3945 26 38.3945L24 40.3945L22 38.3945C19.172 38.3945 17.757 38.3945 16.879 39.2735C16 40.1515 16 41.5665 16 44.3945V47.3945M28 38.3945V43.8945" stroke="black" stroke-width="1.25" stroke-linecap="round" stroke-linejoin="round"/>
<path d="M20.5 38.3945V42.3945M20.5 42.3945C21.0304 42.3945 21.5391 42.6052 21.9142 42.9803C22.2893 43.3554 22.5 43.8641 22.5 44.3945V45.3945M20.5 42.3945C19.9696 42.3945 19.4609 42.6052 19.0858 42.9803C18.7107 43.3554 18.5 43.8641 18.5 44.3945V45.3945M27.5 31.8945V30.8945C27.5 30.4349 27.4095 29.9798 27.2336 29.5551C27.0577 29.1305 26.7999 28.7447 26.4749 28.4197C26.1499 28.0947 25.764 27.8368 25.3394 27.661C24.9148 27.4851 24.4596 27.3945 24 27.3945C23.5404 27.3945 23.0852 27.4851 22.6606 27.661C22.236 27.8368 21.8501 28.0947 21.5251 28.4197C21.2001 28.7447 20.9423 29.1305 20.7664 29.5551C20.5905 29.9798 20.5 30.4349 20.5 30.8945V31.8945C20.5 32.3542 20.5905 32.8093 20.7664 33.2339C20.9423 33.6586 21.2001 34.0444 21.5251 34.3694C21.8501 34.6944 22.236 34.9522 22.6606 35.1281C23.0852 35.304 23.5404 35.3945 24 35.3945C24.4596 35.3945 24.9148 35.304 25.3394 35.1281C25.764 34.9522 26.1499 34.6944 26.4749 34.3694C26.7999 34.0444 27.0577 33.6586 27.2336 33.2339C27.4095 32.8093 27.5 32.3542 27.5 31.8945Z" stroke="black" stroke-width="1.25" stroke-linecap="round" stroke-linejoin="round"/>
<path d="M28.75 44.6445C28.75 44.8434 28.671 45.0342 28.5303 45.1749C28.3897 45.3155 28.1989 45.3945 28 45.3945C27.8011 45.3945 27.6103 45.3155 27.4697 45.1749C27.329 45.0342 27.25 44.8434 27.25 44.6445C27.25 44.4456 27.329 44.2549 27.4697 44.1142C27.6103 43.9735 27.8011 43.8945 28 43.8945C28.1989 43.8945 28.3897 43.9735 28.5303 44.1142C28.671 44.2549 28.75 44.4456 28.75 44.6445Z" stroke="black" stroke-width="1.25"/>
</g>
<defs>
<clipPath id="bgblur_0_6592_31894_clip_path" transform="translate(16 2.60547)"><rect y="13.3945" width="48" height="48" rx="10"/>
</clipPath></defs>
</svg>
