<svg width="30" height="36" viewBox="0 0 30 36" fill="none" xmlns="http://www.w3.org/2000/svg">
<g filter="url(#filter0_ii_7762_12186)">
<path d="M0.600186 0.555325C0.222964 0.986525 -5.53838e-07 1.65573 -5.53838e-07 2.52233V33.4847C-5.53838e-07 34.3527 0.222964 35.0205 0.600186 35.4517L0.696112 35.5525L16.7559 18.2079V18.0035V17.7991L0.696112 0.453125L0.600186 0.555325Z" fill="url(#paint0_linear_7762_12186)"/>
<path d="M22.1102 23.9918L16.7578 18.2084V18.004V17.7996L22.1115 12.0176L22.2321 12.0918L28.5748 15.9838C30.3858 17.0954 30.3858 18.914 28.5748 20.027L22.2321 23.919L22.1102 23.9918Z" fill="url(#paint1_linear_7762_12186)"/>
<g filter="url(#filter1_i_7762_12186)">
<path d="M22.2316 23.9175L16.756 18.0039L0.601564 35.4521C1.19786 36.1353 2.18434 36.2193 3.29527 35.5389L22.2316 23.9175Z" fill="url(#paint2_linear_7762_12186)"/>
</g>
<path d="M22.2316 12.0905L3.29527 0.470505C2.18434 -0.211295 1.19786 -0.125894 0.601564 0.557306L16.7573 18.0055L22.2316 12.0905Z" fill="url(#paint3_linear_7762_12186)"/>
</g>
<defs>
<filter id="filter0_ii_7762_12186" x="0" y="0" width="29.9336" height="36.0088" filterUnits="userSpaceOnUse" color-interpolation-filters="sRGB">
<feFlood flood-opacity="0" result="BackgroundImageFix"/>
<feBlend mode="normal" in="SourceGraphic" in2="BackgroundImageFix" result="shape"/>
<feColorMatrix in="SourceAlpha" type="matrix" values="0 0 0 0 0 0 0 0 0 0 0 0 0 0 0 0 0 0 127 0" result="hardAlpha"/>
<feOffset dy="-0.15"/>
<feComposite in2="hardAlpha" operator="arithmetic" k2="-1" k3="1"/>
<feColorMatrix type="matrix" values="0 0 0 0 0 0 0 0 0 0 0 0 0 0 0 0 0 0 0.12 0"/>
<feBlend mode="normal" in2="shape" result="effect1_innerShadow_7762_12186"/>
<feColorMatrix in="SourceAlpha" type="matrix" values="0 0 0 0 0 0 0 0 0 0 0 0 0 0 0 0 0 0 127 0" result="hardAlpha"/>
<feOffset dy="0.15"/>
<feComposite in2="hardAlpha" operator="arithmetic" k2="-1" k3="1"/>
<feColorMatrix type="matrix" values="0 0 0 0 1 0 0 0 0 1 0 0 0 0 1 0 0 0 0.25 0"/>
<feBlend mode="normal" in2="effect1_innerShadow_7762_12186" result="effect2_innerShadow_7762_12186"/>
</filter>
<filter id="filter1_i_7762_12186" x="0.601562" y="18.0039" width="21.6289" height="18.0049" filterUnits="userSpaceOnUse" color-interpolation-filters="sRGB">
<feFlood flood-opacity="0" result="BackgroundImageFix"/>
<feBlend mode="normal" in="SourceGraphic" in2="BackgroundImageFix" result="shape"/>
<feColorMatrix in="SourceAlpha" type="matrix" values="0 0 0 0 0 0 0 0 0 0 0 0 0 0 0 0 0 0 127 0" result="hardAlpha"/>
<feOffset dy="-0.15"/>
<feComposite in2="hardAlpha" operator="arithmetic" k2="-1" k3="1"/>
<feColorMatrix type="matrix" values="0 0 0 0 0 0 0 0 0 0 0 0 0 0 0 0 0 0 0.08 0"/>
<feBlend mode="normal" in2="shape" result="effect1_innerShadow_7762_12186"/>
</filter>
<linearGradient id="paint0_linear_7762_12186" x1="15.3323" y1="2.19472" x2="-8.09305" y2="23.8849" gradientUnits="userSpaceOnUse">
<stop stop-color="#00A0FF"/>
<stop offset="0.0066" stop-color="#00A1FF"/>
<stop offset="0.2601" stop-color="#00BEFF"/>
<stop offset="0.5122" stop-color="#00D2FF"/>
<stop offset="0.7604" stop-color="#00DFFF"/>
<stop offset="1" stop-color="#00E3FF"/>
</linearGradient>
<linearGradient id="paint1_linear_7762_12186" x1="30.9322" y1="18.004" x2="-0.43289" y2="18.004" gradientUnits="userSpaceOnUse">
<stop stop-color="#FFE000"/>
<stop offset="0.4087" stop-color="#FFBD00"/>
<stop offset="0.7754" stop-color="#FFA500"/>
<stop offset="1" stop-color="#FF9C00"/>
</linearGradient>
<linearGradient id="paint2_linear_7762_12186" x1="19.258" y1="21.2154" x2="-12.5098" y2="50.63" gradientUnits="userSpaceOnUse">
<stop stop-color="#FF3A44"/>
<stop offset="1" stop-color="#C31162"/>
</linearGradient>
<linearGradient id="paint3_linear_7762_12186" x1="-3.46699" y1="-9.74977" x2="10.7182" y2="3.38466" gradientUnits="userSpaceOnUse">
<stop stop-color="#32A071"/>
<stop offset="0.0685" stop-color="#2DA771"/>
<stop offset="0.4762" stop-color="#15CF74"/>
<stop offset="0.8009" stop-color="#06E775"/>
<stop offset="1" stop-color="#00F076"/>
</linearGradient>
</defs>
</svg>
