<svg width="52" height="52" viewBox="0 0 52 52" fill="none" xmlns="http://www.w3.org/2000/svg">
<g filter="url(#filter0_d_6592_32215)">
<rect x="2" y="1" width="48" height="48" rx="10" fill="white"/>
<rect x="2.5" y="1.5" width="47" height="47" rx="9.5" stroke="#D5D5D5"/>
<path d="M39.0357 16.5337C39.5373 16.1681 39.6498 15.465 39.2842 14.9634C38.9186 14.4618 38.2154 14.3493 37.7139 14.715L34.2217 17.2556L33.7576 16.9462C32.8342 16.3275 31.7467 15.9993 30.6357 15.9993H21.1107C19.8592 15.9993 18.6498 16.4165 17.6701 17.1759L14.2857 14.715C13.7842 14.3493 13.0811 14.4618 12.7154 14.9634C12.3498 15.465 12.4623 16.1681 12.9639 16.5337L17.0889 19.5337C17.5389 19.8571 18.1529 19.8103 18.5467 19.4212L18.7295 19.2384C19.3623 18.6056 20.2201 18.2493 21.1154 18.2493H23.2857L18.9873 22.5478C18.2561 23.279 18.2561 24.465 18.9873 25.2009L19.0248 25.2384C21.2186 27.4368 24.7811 27.4368 26.9795 25.2384L28.2498 23.9681L32.8342 28.5525C33.5654 29.2837 33.5654 30.4696 32.8342 31.2056L32.3748 31.665L30.9217 30.2118C30.4811 29.7712 29.7686 29.7712 29.3326 30.2118C28.8967 30.6525 28.892 31.365 29.3326 31.8009L30.6451 33.1134C29.8248 33.6009 28.9014 33.8962 27.9451 33.9806L25.6717 31.7025C25.2311 31.2618 24.5186 31.2618 24.0826 31.7025C23.6467 32.1431 23.642 32.8556 24.0826 33.2915L24.7857 33.9946H24.6076C22.9154 33.9946 21.2936 33.3243 20.0982 32.129L14.0467 26.0775C13.6061 25.6368 12.8936 25.6368 12.4576 26.0775C12.0217 26.5181 12.017 27.2306 12.4576 27.6665L18.5092 33.7228C20.1264 35.34 22.3201 36.2493 24.6076 36.2493H27.0357L27.0826 36.2962L27.1295 36.2493H27.3967C29.6842 36.2493 31.8779 35.34 33.4951 33.7228L34.4279 32.79C34.4842 32.7337 34.5357 32.6821 34.5873 32.6259C34.6201 32.6025 34.6482 32.5743 34.6764 32.5462L39.5467 27.6712C39.9873 27.2306 39.9873 26.5181 39.5467 26.0821C39.1061 25.6462 38.3936 25.6415 37.9576 26.0821L35.4357 28.604C35.2389 28.004 34.9061 27.4368 34.4279 26.9587L29.0467 21.5775C28.6061 21.1368 27.8936 21.1368 27.4576 21.5775L25.3904 23.6446C24.1482 24.8868 22.1795 24.9571 20.8576 23.8603L25.4842 19.2337C26.1123 18.6056 26.9654 18.2493 27.8561 18.2446H30.6451C31.3107 18.2446 31.9623 18.4415 32.5154 18.8118L33.6264 19.5618C34.0201 19.8243 34.5311 19.8103 34.9107 19.5337L39.0357 16.5337Z" fill="#454545"/>
</g>
<defs>
<filter id="filter0_d_6592_32215" x="0" y="0" width="52" height="52" filterUnits="userSpaceOnUse" color-interpolation-filters="sRGB">
<feFlood flood-opacity="0" result="BackgroundImageFix"/>
<feColorMatrix in="SourceAlpha" type="matrix" values="0 0 0 0 0 0 0 0 0 0 0 0 0 0 0 0 0 0 127 0" result="hardAlpha"/>
<feOffset dy="1"/>
<feGaussianBlur stdDeviation="1"/>
<feColorMatrix type="matrix" values="0 0 0 0 0.0627451 0 0 0 0 0.0941176 0 0 0 0 0.156863 0 0 0 0.05 0"/>
<feBlend mode="normal" in2="BackgroundImageFix" result="effect1_dropShadow_6592_32215"/>
<feBlend mode="normal" in="SourceGraphic" in2="effect1_dropShadow_6592_32215" result="shape"/>
</filter>
</defs>
</svg>
