<svg width="155" height="56" viewBox="0 0 155 56" fill="none" xmlns="http://www.w3.org/2000/svg">
<rect width="155" height="56" rx="7" fill="black"/>
<path d="M105.303 26.8815V30.0889H103.448V32.1923H105.303V39.3393C105.303 41.7797 106.322 42.7559 108.884 42.7559C109.335 42.7559 109.764 42.6978 110.139 42.6281V40.5479C109.817 40.5828 109.613 40.606 109.26 40.606C108.112 40.606 107.609 40.025 107.609 38.7001V32.1923H110.139V30.0889H107.609V26.8815H105.303Z" fill="white"/>
<path d="M116.667 42.9302C120.076 42.9302 122.167 40.4549 122.167 36.3527C122.167 32.2737 120.066 29.7868 116.667 29.7868C113.257 29.7868 111.156 32.2737 111.156 36.3527C111.156 40.4549 113.246 42.9302 116.667 42.9302ZM116.667 40.7106C114.662 40.7106 113.536 39.1185 113.536 36.3527C113.536 33.6101 114.662 32.0064 116.667 32.0064C118.661 32.0064 119.798 33.6101 119.798 36.3527C119.798 39.1069 118.661 40.7106 116.667 40.7106Z" fill="white"/>
<path d="M123.956 42.6862H126.261V35.2138C126.261 33.4358 127.494 32.2388 129.242 32.2388C129.649 32.2388 130.335 32.3202 130.528 32.3899V29.9262C130.282 29.8565 129.842 29.8216 129.499 29.8216C127.977 29.8216 126.679 30.7281 126.347 31.9715H126.175V30.0308H123.956V42.6862Z" fill="white"/>
<path d="M136.252 31.9134C137.957 31.9134 139.072 33.2034 139.126 35.1906H133.229C133.357 33.215 134.547 31.9134 136.252 31.9134ZM139.115 39.2696C138.686 40.2574 137.732 40.8036 136.338 40.8036C134.494 40.8036 133.304 39.3974 133.229 37.1778V37.0383H141.474V36.1667C141.474 32.1923 139.512 29.7868 136.263 29.7868C132.971 29.7868 130.88 32.355 130.88 36.3992C130.88 40.4433 132.928 42.9302 136.274 42.9302C138.943 42.9302 140.809 41.5357 141.334 39.2696H139.115Z" fill="white"/>
<path d="M90.1862 38.0128C90.364 41.1203 92.7533 43.1078 96.3094 43.1078C100.11 43.1078 102.488 41.024 102.488 37.6996C102.488 35.0858 101.132 33.6404 97.843 32.8093L96.076 32.3396C93.9868 31.8096 93.1422 31.099 93.1422 29.8583C93.1422 28.2925 94.4535 27.2687 96.4205 27.2687C98.2875 27.2687 99.5766 28.2684 99.8099 29.8704H102.233C102.088 26.9435 99.7099 24.8838 96.4538 24.8838C92.9533 24.8838 90.6196 26.9435 90.6196 30.039C90.6196 32.5925 91.942 34.1102 94.8425 34.8449L96.9095 35.387C99.032 35.929 99.9655 36.7239 99.9655 38.0489C99.9655 39.5906 98.4986 40.7108 96.4983 40.7108C94.3535 40.7108 92.8644 39.6629 92.6532 38.0128H90.1862Z" fill="white"/>
<path d="M66.3067 29.8216C64.7199 29.8216 63.3475 30.6816 62.6398 32.1226H62.4683V30.0308H60.2489V46.893H62.5541V40.7687H62.7363C63.3475 42.1051 64.6663 42.8954 66.3282 42.8954C69.2767 42.8954 71.153 40.3736 71.153 36.3527C71.153 32.3318 69.2767 29.8216 66.3067 29.8216ZM65.6527 40.6525C63.7227 40.6525 62.5112 39.0023 62.5112 36.3643C62.5112 33.7147 63.7227 32.0645 65.6634 32.0645C67.6148 32.0645 68.7835 33.6798 68.7835 36.3527C68.7835 39.0372 67.6148 40.6525 65.6527 40.6525Z" fill="white"/>
<path d="M79.2192 29.8216C77.6324 29.8216 76.26 30.6816 75.5524 32.1226H75.3808V30.0308H73.1614V46.893H75.4666V40.7687H75.6489C76.26 42.1051 77.5788 42.8954 79.2407 42.8954C82.1892 42.8954 84.0655 40.3736 84.0655 36.3527C84.0655 32.3318 82.1892 29.8216 79.2192 29.8216ZM78.5652 40.6525C76.6353 40.6525 75.4237 39.0023 75.4237 36.3643C75.4237 33.7147 76.6353 32.0645 78.5759 32.0645C80.5273 32.0645 81.696 33.6798 81.696 36.3527C81.696 39.0372 80.5273 40.6525 78.5652 40.6525Z" fill="white"/>
<path d="M56.113 42.6862H58.7578L52.968 25.3054H50.2898L44.5 42.6862H47.056L48.534 38.073H54.6461L56.113 42.6862ZM51.5011 28.4611H51.69L54.0126 35.8085H49.1674L51.5011 28.4611Z" fill="white"/>
<path d="M46.0508 12.1958V20.5804H48.8438C51.149 20.5804 52.4839 19.0406 52.4839 16.3619C52.4839 13.7239 51.1383 12.1958 48.8438 12.1958H46.0508ZM47.2516 13.3811H48.7098C50.3127 13.3811 51.2616 14.4851 51.2616 16.3793C51.2616 18.3026 50.3288 19.395 48.7098 19.395H47.2516V13.3811Z" fill="white"/>
<path d="M56.5721 20.7024C58.2769 20.7024 59.3223 19.4647 59.3223 17.4136C59.3223 15.3741 58.2715 14.1307 56.5721 14.1307C54.8674 14.1307 53.8166 15.3741 53.8166 17.4136C53.8166 19.4647 54.862 20.7024 56.5721 20.7024ZM56.5721 19.5926C55.5696 19.5926 55.0067 18.7965 55.0067 17.4136C55.0067 16.0423 55.5696 15.2405 56.5721 15.2405C57.5693 15.2405 58.1375 16.0423 58.1375 17.4136C58.1375 18.7907 57.5693 19.5926 56.5721 19.5926Z" fill="white"/>
<path d="M68.2246 14.2527H67.072L66.032 19.0812H65.9409L64.74 14.2527H63.6357L62.4348 19.0812H62.3491L61.3037 14.2527H60.135L61.7433 20.5804H62.928L64.1289 15.9203H64.22L65.4262 20.5804H66.6217L68.2246 14.2527Z" fill="white"/>
<path d="M69.552 20.5804H70.7046V16.8791C70.7046 15.8913 71.246 15.2753 72.0984 15.2753C72.9508 15.2753 73.3582 15.7809 73.3582 16.7977V20.5804H74.5108V16.4839C74.5108 14.979 73.7925 14.1307 72.4898 14.1307C71.6106 14.1307 71.0316 14.5548 70.7475 15.2579H70.6617V14.2527H69.552V20.5804Z" fill="white"/>
<path d="M76.326 20.5804H77.4786V11.7832H76.326V20.5804Z" fill="white"/>
<path d="M81.8135 20.7024C83.5183 20.7024 84.5636 19.4647 84.5636 17.4136C84.5636 15.3741 83.5129 14.1307 81.8135 14.1307C80.1087 14.1307 79.058 15.3741 79.058 17.4136C79.058 19.4647 80.1034 20.7024 81.8135 20.7024ZM81.8135 19.5926C80.811 19.5926 80.2481 18.7965 80.2481 17.4136C80.2481 16.0423 80.811 15.2405 81.8135 15.2405C82.8106 15.2405 83.3789 16.0423 83.3789 17.4136C83.3789 18.7907 82.8106 19.5926 81.8135 19.5926Z" fill="white"/>
<path d="M87.9978 19.6333C87.3706 19.6333 86.9149 19.3021 86.9149 18.7326C86.9149 18.1748 87.2795 17.8785 88.0836 17.8204L89.5096 17.7216V18.2503C89.5096 19.0348 88.8663 19.6333 87.9978 19.6333ZM87.703 20.685C88.4696 20.685 89.1076 20.3247 89.456 19.6914H89.5471V20.5804H90.6569V16.2573C90.6569 14.9209 89.8313 14.1307 88.3677 14.1307C87.0436 14.1307 86.1001 14.8279 85.9821 15.9145H87.0972C87.2259 15.4671 87.6708 15.2114 88.3141 15.2114C89.1022 15.2114 89.5096 15.5891 89.5096 16.2573V16.8035L87.9282 16.9023C86.5397 16.9953 85.757 17.6519 85.757 18.7907C85.757 19.947 86.5772 20.685 87.703 20.685Z" fill="white"/>
<path d="M94.5682 20.685C95.3723 20.685 96.0532 20.2724 96.4016 19.581H96.4928V20.5804H97.5971V11.7832H96.4445V15.2579H96.3587C96.0424 14.5606 95.367 14.1481 94.5682 14.1481C93.0939 14.1481 92.1451 15.4148 92.1451 17.4136C92.1451 19.4183 93.0832 20.685 94.5682 20.685ZM94.8952 15.2695C95.8602 15.2695 96.466 16.1004 96.466 17.4194C96.466 18.7442 95.8655 19.5635 94.8952 19.5635C93.9195 19.5635 93.3352 18.7559 93.3352 17.4136C93.3352 16.083 93.9249 15.2695 94.8952 15.2695Z" fill="white"/>
<path d="M105.071 20.7024C106.776 20.7024 107.821 19.4647 107.821 17.4136C107.821 15.3741 106.771 14.1307 105.071 14.1307C103.367 14.1307 102.316 15.3741 102.316 17.4136C102.316 19.4647 103.361 20.7024 105.071 20.7024ZM105.071 19.5926C104.069 19.5926 103.506 18.7965 103.506 17.4136C103.506 16.0423 104.069 15.2405 105.071 15.2405C106.068 15.2405 106.637 16.0423 106.637 17.4136C106.637 18.7907 106.068 19.5926 105.071 19.5926Z" fill="white"/>
<path d="M109.347 20.5804H110.5V16.8791C110.5 15.8913 111.041 15.2753 111.894 15.2753C112.746 15.2753 113.153 15.7809 113.153 16.7977V20.5804H114.306V16.4839C114.306 14.979 113.588 14.1307 112.285 14.1307C111.406 14.1307 110.827 14.5548 110.543 15.2579H110.457V14.2527H109.347V20.5804Z" fill="white"/>
<path d="M119.614 12.678V14.2817H118.687V15.3334H119.614V18.9069C119.614 20.1271 120.124 20.6152 121.405 20.6152C121.63 20.6152 121.845 20.5862 122.032 20.5513V19.5112C121.871 19.5287 121.77 19.5403 121.593 19.5403C121.019 19.5403 120.767 19.2498 120.767 18.5874V15.3334H122.032V14.2817H120.767V12.678H119.614Z" fill="white"/>
<path d="M123.579 20.5804H124.732V16.8849C124.732 15.9261 125.257 15.2812 126.201 15.2812C127.016 15.2812 127.45 15.7925 127.45 16.8035V20.5804H128.603V16.4956C128.603 14.9906 127.836 14.1365 126.592 14.1365C125.713 14.1365 125.096 14.5606 124.812 15.2695H124.721V11.7832H123.579V20.5804Z" fill="white"/>
<path d="M132.76 15.194C133.613 15.194 134.17 15.839 134.197 16.8326H131.249C131.313 15.8448 131.908 15.194 132.76 15.194ZM134.192 18.8721C133.977 19.366 133.5 19.6391 132.803 19.6391C131.881 19.6391 131.286 18.936 131.249 17.8262V17.7564H135.371V17.3207C135.371 15.3334 134.39 14.1307 132.766 14.1307C131.12 14.1307 130.075 15.4148 130.075 17.4369C130.075 19.4589 131.099 20.7024 132.771 20.7024C134.106 20.7024 135.039 20.0051 135.302 18.8721H134.192Z" fill="white"/>
<path d="M31.9921 28.4215C32.0201 26.0681 33.1861 23.8413 35.036 22.6086C33.869 20.8022 31.9144 19.6568 29.8807 19.5879C27.7117 19.3411 25.609 20.9946 24.5037 20.9946C23.377 20.9946 21.6752 19.6124 19.8427 19.6532C17.4541 19.7369 15.2273 21.2088 14.0652 23.4722C11.5671 28.16 13.4304 35.0495 15.8234 38.8387C17.0206 40.6942 18.4199 42.7669 20.2507 42.6934C22.0424 42.6128 22.7115 41.4551 24.8741 41.4551C27.0167 41.4551 27.6445 42.6934 29.5125 42.6466C31.435 42.6128 32.6463 40.7829 33.8015 38.9098C34.6617 37.5877 35.3237 36.1265 35.7628 34.5803C33.5035 33.5446 31.9947 31.0803 31.9921 28.4215Z" fill="white"/>
<path d="M28.4637 17.0959C29.5119 15.732 30.0283 13.9789 29.9033 12.209C28.3018 12.3913 26.8225 13.2209 25.7602 14.5324C24.7213 15.8139 24.1807 17.5361 24.2829 19.2384C25.8849 19.2563 27.4598 18.4492 28.4637 17.0959Z" fill="white"/>
</svg>
