<svg width="183" height="56" viewBox="0 0 183 56" fill="none" xmlns="http://www.w3.org/2000/svg">
<path d="M0 8C0 3.58172 3.58172 0 8 0H175C179.418 0 183 3.58172 183 8V48C183 52.4183 179.418 56 175 56H8C3.58172 56 0 52.4183 0 48V8Z" fill="black"/>
<path d="M37.0511 36.28C36.0711 37.23 35.0011 37.08 33.9711 36.63C32.8811 36.17 31.8811 36.15 30.7311 36.63C29.2911 37.25 28.5311 37.07 27.6711 36.28C22.7911 31.25 23.5111 23.59 29.0511 23.31C30.4011 23.38 31.3411 24.05 32.1311 24.11C33.3111 23.87 34.4411 23.18 35.7011 23.27C37.2111 23.39 38.3511 23.99 39.1011 25.07C35.9811 26.94 36.7211 31.05 39.5811 32.2C39.0111 33.7 38.2711 35.19 37.0411 36.29L37.0511 36.28ZM32.0311 23.25C31.8811 21.02 33.6911 19.18 35.7711 19C36.0611 21.58 33.4311 23.5 32.0311 23.25Z" fill="white"/>
<path d="M59.3145 18H56.6213V9.27273H59.4338C60.2804 9.27273 61.0048 9.44744 61.6071 9.79688C62.2093 10.1435 62.671 10.642 62.992 11.2926C63.313 11.9403 63.4735 12.7159 63.4735 13.6193C63.4735 14.5284 63.3116 15.3111 62.9877 15.9673C62.6639 16.6207 62.1923 17.1236 61.573 17.4759C60.9537 17.8253 60.2008 18 59.3145 18ZM57.6781 17.0625H59.2463C59.9679 17.0625 60.5659 16.9233 61.0403 16.6449C61.5147 16.3665 61.8684 15.9702 62.1014 15.456C62.3343 14.9418 62.4508 14.3295 62.4508 13.6193C62.4508 12.9148 62.3358 12.3082 62.1056 11.7997C61.8755 11.2884 61.5318 10.8963 61.0744 10.6236C60.617 10.348 60.0474 10.2102 59.3656 10.2102H57.6781V17.0625ZM67.769 18.1364C67.1781 18.1364 66.6596 17.9957 66.2136 17.7145C65.7704 17.4332 65.4238 17.0398 65.1738 16.5341C64.9267 16.0284 64.8031 15.4375 64.8031 14.7614C64.8031 14.0795 64.9267 13.4844 65.1738 12.9759C65.4238 12.4673 65.7704 12.0724 66.2136 11.7912C66.6596 11.5099 67.1781 11.3693 67.769 11.3693C68.3599 11.3693 68.877 11.5099 69.3201 11.7912C69.7662 12.0724 70.1127 12.4673 70.3599 12.9759C70.6099 13.4844 70.7349 14.0795 70.7349 14.7614C70.7349 15.4375 70.6099 16.0284 70.3599 16.5341C70.1127 17.0398 69.7662 17.4332 69.3201 17.7145C68.877 17.9957 68.3599 18.1364 67.769 18.1364ZM67.769 17.233C68.2179 17.233 68.5872 17.1179 68.877 16.8878C69.1667 16.6577 69.3812 16.3551 69.5204 15.9801C69.6596 15.6051 69.7292 15.1989 69.7292 14.7614C69.7292 14.3239 69.6596 13.9162 69.5204 13.5384C69.3812 13.1605 69.1667 12.8551 68.877 12.6222C68.5872 12.3892 68.2179 12.2727 67.769 12.2727C67.3201 12.2727 66.9508 12.3892 66.661 12.6222C66.3713 12.8551 66.1568 13.1605 66.0176 13.5384C65.8784 13.9162 65.8088 14.3239 65.8088 14.7614C65.8088 15.1989 65.8784 15.6051 66.0176 15.9801C66.1568 16.3551 66.3713 16.6577 66.661 16.8878C66.9508 17.1179 67.3201 17.233 67.769 17.233ZM73.5304 18L71.536 11.4545H72.5929L74.0076 16.4659H74.0758L75.4735 11.4545H76.5474L77.9281 16.4489H77.9963L79.411 11.4545H80.4679L78.4735 18H77.4849L76.0531 12.9716H75.9508L74.519 18H73.5304ZM82.8031 14.0625V18H81.7974V11.4545H82.769V12.4773H82.8542C83.0076 12.1449 83.2406 11.8778 83.5531 11.6761C83.8656 11.4716 84.269 11.3693 84.7633 11.3693C85.2065 11.3693 85.5943 11.4602 85.9267 11.642C86.2591 11.821 86.5176 12.0938 86.7022 12.4602C86.8869 12.8239 86.9792 13.2841 86.9792 13.8409V18H85.9735V13.9091C85.9735 13.3949 85.84 12.9943 85.573 12.7074C85.3059 12.4176 84.9395 12.2727 84.4735 12.2727C84.1525 12.2727 83.8656 12.3423 83.6127 12.4815C83.3627 12.6207 83.1653 12.8239 83.0204 13.0909C82.8755 13.358 82.8031 13.6818 82.8031 14.0625ZM89.8226 9.27273V18H88.8169V9.27273H89.8226ZM94.3237 18.1364C93.7328 18.1364 93.2143 17.9957 92.7683 17.7145C92.3251 17.4332 91.9785 17.0398 91.7285 16.5341C91.4814 16.0284 91.3578 15.4375 91.3578 14.7614C91.3578 14.0795 91.4814 13.4844 91.7285 12.9759C91.9785 12.4673 92.3251 12.0724 92.7683 11.7912C93.2143 11.5099 93.7328 11.3693 94.3237 11.3693C94.9146 11.3693 95.4316 11.5099 95.8748 11.7912C96.3208 12.0724 96.6674 12.4673 96.9146 12.9759C97.1646 13.4844 97.2896 14.0795 97.2896 14.7614C97.2896 15.4375 97.1646 16.0284 96.9146 16.5341C96.6674 17.0398 96.3208 17.4332 95.8748 17.7145C95.4316 17.9957 94.9146 18.1364 94.3237 18.1364ZM94.3237 17.233C94.7725 17.233 95.1419 17.1179 95.4316 16.8878C95.7214 16.6577 95.9359 16.3551 96.0751 15.9801C96.2143 15.6051 96.2839 15.1989 96.2839 14.7614C96.2839 14.3239 96.2143 13.9162 96.0751 13.5384C95.9359 13.1605 95.7214 12.8551 95.4316 12.6222C95.1419 12.3892 94.7725 12.2727 94.3237 12.2727C93.8748 12.2727 93.5055 12.3892 93.2157 12.6222C92.926 12.8551 92.7115 13.1605 92.5723 13.5384C92.4331 13.9162 92.3635 14.3239 92.3635 14.7614C92.3635 15.1989 92.4331 15.6051 92.5723 15.9801C92.7115 16.3551 92.926 16.6577 93.2157 16.8878C93.5055 17.1179 93.8748 17.233 94.3237 17.233ZM100.751 18.1534C100.336 18.1534 99.9597 18.0753 99.6216 17.919C99.2836 17.7599 99.0151 17.5312 98.8162 17.233C98.6174 16.9318 98.5179 16.5682 98.5179 16.142C98.5179 15.767 98.5918 15.4631 98.7395 15.2301C98.8873 14.9943 99.0847 14.8097 99.3319 14.6761C99.579 14.5426 99.8517 14.4432 100.15 14.3778C100.451 14.3097 100.754 14.2557 101.058 14.2159C101.455 14.1648 101.778 14.1264 102.025 14.1009C102.275 14.0724 102.457 14.0256 102.57 13.9602C102.687 13.8949 102.745 13.7812 102.745 13.6193V13.5852C102.745 13.1648 102.63 12.8381 102.4 12.6051C102.173 12.3722 101.828 12.2557 101.365 12.2557C100.884 12.2557 100.508 12.3608 100.235 12.571C99.9625 12.7812 99.7708 13.0057 99.66 13.2443L98.7054 12.9034C98.8759 12.5057 99.1032 12.196 99.3873 11.9744C99.6742 11.75 99.9867 11.5937 100.325 11.5057C100.666 11.4148 101.001 11.3693 101.33 11.3693C101.541 11.3693 101.782 11.3949 102.055 11.446C102.33 11.4943 102.596 11.5952 102.852 11.7486C103.11 11.902 103.325 12.1335 103.495 12.4432C103.666 12.7528 103.751 13.1676 103.751 13.6875V18H102.745V17.1136H102.694C102.626 17.2557 102.512 17.4077 102.353 17.5696C102.194 17.7315 101.982 17.8693 101.718 17.983C101.454 18.0966 101.132 18.1534 100.751 18.1534ZM100.904 17.25C101.302 17.25 101.637 17.1719 101.91 17.0156C102.186 16.8594 102.393 16.6577 102.532 16.4105C102.674 16.1634 102.745 15.9034 102.745 15.6307V14.7102C102.703 14.7614 102.609 14.8082 102.464 14.8509C102.322 14.8906 102.157 14.9261 101.97 14.9574C101.785 14.9858 101.605 15.0114 101.428 15.0341C101.255 15.054 101.115 15.071 101.007 15.0852C100.745 15.1193 100.501 15.1747 100.274 15.2514C100.049 15.3253 99.8674 15.4375 99.7282 15.5881C99.5918 15.7358 99.5236 15.9375 99.5236 16.1932C99.5236 16.5426 99.6529 16.8068 99.9114 16.9858C100.173 17.1619 100.504 17.25 100.904 17.25ZM108.058 18.1364C107.513 18.1364 107.031 17.9986 106.613 17.723C106.196 17.4446 105.869 17.0526 105.633 16.5469C105.398 16.0384 105.28 15.4375 105.28 14.7443C105.28 14.0568 105.398 13.4602 105.633 12.9545C105.869 12.4489 106.197 12.0582 106.618 11.7827C107.038 11.5071 107.524 11.3693 108.075 11.3693C108.501 11.3693 108.838 11.4403 109.085 11.5824C109.335 11.7216 109.525 11.8807 109.656 12.0597C109.79 12.2358 109.893 12.3807 109.967 12.4943H110.052V9.27273H111.058V18H110.086V16.9943H109.967C109.893 17.1136 109.788 17.2642 109.652 17.446C109.515 17.625 109.321 17.7855 109.068 17.9276C108.815 18.0668 108.479 18.1364 108.058 18.1364ZM108.194 17.233C108.598 17.233 108.939 17.1278 109.217 16.9176C109.496 16.7045 109.707 16.4105 109.852 16.0355C109.997 15.6577 110.069 15.2216 110.069 14.7273C110.069 14.2386 109.998 13.8111 109.856 13.4446C109.714 13.0753 109.504 12.7884 109.226 12.5838C108.947 12.3764 108.604 12.2727 108.194 12.2727C107.768 12.2727 107.413 12.3821 107.129 12.6009C106.848 12.8168 106.636 13.1108 106.494 13.483C106.355 13.8523 106.285 14.267 106.285 14.7273C106.285 15.1932 106.356 15.6165 106.498 15.9972C106.643 16.375 106.856 16.6761 107.138 16.9006C107.422 17.1222 107.774 17.233 108.194 17.233ZM119.074 18.1364C118.483 18.1364 117.964 17.9957 117.518 17.7145C117.075 17.4332 116.729 17.0398 116.479 16.5341C116.231 16.0284 116.108 15.4375 116.108 14.7614C116.108 14.0795 116.231 13.4844 116.479 12.9759C116.729 12.4673 117.075 12.0724 117.518 11.7912C117.964 11.5099 118.483 11.3693 119.074 11.3693C119.665 11.3693 120.182 11.5099 120.625 11.7912C121.071 12.0724 121.417 12.4673 121.665 12.9759C121.915 13.4844 122.04 14.0795 122.04 14.7614C122.04 15.4375 121.915 16.0284 121.665 16.5341C121.417 17.0398 121.071 17.4332 120.625 17.7145C120.182 17.9957 119.665 18.1364 119.074 18.1364ZM119.074 17.233C119.523 17.233 119.892 17.1179 120.182 16.8878C120.471 16.6577 120.686 16.3551 120.825 15.9801C120.964 15.6051 121.034 15.1989 121.034 14.7614C121.034 14.3239 120.964 13.9162 120.825 13.5384C120.686 13.1605 120.471 12.8551 120.182 12.6222C119.892 12.3892 119.523 12.2727 119.074 12.2727C118.625 12.2727 118.256 12.3892 117.966 12.6222C117.676 12.8551 117.461 13.1605 117.322 13.5384C117.183 13.9162 117.113 14.3239 117.113 14.7614C117.113 15.1989 117.183 15.6051 117.322 15.9801C117.461 16.3551 117.676 16.6577 117.966 16.8878C118.256 17.1179 118.625 17.233 119.074 17.233ZM124.58 14.0625V18H123.575V11.4545H124.546V12.4773H124.632C124.785 12.1449 125.018 11.8778 125.33 11.6761C125.643 11.4716 126.046 11.3693 126.541 11.3693C126.984 11.3693 127.372 11.4602 127.704 11.642C128.036 11.821 128.295 12.0938 128.48 12.4602C128.664 12.8239 128.757 13.2841 128.757 13.8409V18H127.751V13.9091C127.751 13.3949 127.617 12.9943 127.35 12.7074C127.083 12.4176 126.717 12.2727 126.251 12.2727C125.93 12.2727 125.643 12.3423 125.39 12.4815C125.14 12.6207 124.943 12.8239 124.798 13.0909C124.653 13.358 124.58 13.6818 124.58 14.0625ZM136.816 11.4545V12.3068H133.424V11.4545H136.816ZM134.412 9.88636H135.418V16.125C135.418 16.4091 135.459 16.6222 135.542 16.7642C135.627 16.9034 135.735 16.9972 135.866 17.0455C135.999 17.0909 136.14 17.1136 136.287 17.1136C136.398 17.1136 136.489 17.108 136.56 17.0966C136.631 17.0824 136.688 17.071 136.731 17.0625L136.935 17.9659C136.867 17.9915 136.772 18.017 136.65 18.0426C136.528 18.071 136.373 18.0852 136.185 18.0852C135.901 18.0852 135.623 18.0241 135.35 17.902C135.08 17.7798 134.856 17.5938 134.677 17.3438C134.501 17.0938 134.412 16.7784 134.412 16.3977V9.88636ZM139.475 14.0625V18H138.469V9.27273H139.475V12.4773H139.56C139.714 12.1392 139.944 11.8707 140.251 11.6719C140.56 11.4702 140.972 11.3693 141.486 11.3693C141.932 11.3693 142.323 11.4588 142.658 11.6378C142.993 11.8139 143.253 12.0852 143.438 12.4517C143.626 12.8153 143.719 13.2784 143.719 13.8409V18H142.714V13.9091C142.714 13.3892 142.579 12.9872 142.309 12.7031C142.042 12.4162 141.671 12.2727 141.197 12.2727C140.867 12.2727 140.572 12.3423 140.31 12.4815C140.052 12.6207 139.847 12.8239 139.697 13.0909C139.549 13.358 139.475 13.6818 139.475 14.0625ZM148.303 18.1364C147.673 18.1364 147.129 17.9972 146.671 17.7188C146.217 17.4375 145.866 17.0455 145.619 16.5426C145.374 16.0369 145.252 15.4489 145.252 14.7784C145.252 14.108 145.374 13.517 145.619 13.0057C145.866 12.4915 146.21 12.0909 146.65 11.804C147.093 11.5142 147.61 11.3693 148.201 11.3693C148.542 11.3693 148.879 11.4261 149.211 11.5398C149.544 11.6534 149.846 11.8381 150.119 12.0938C150.392 12.3466 150.609 12.6818 150.771 13.0994C150.933 13.517 151.014 14.0312 151.014 14.642V15.0682H145.968V14.1989H149.991C149.991 13.8295 149.917 13.5 149.769 13.2102C149.624 12.9205 149.417 12.6918 149.147 12.5241C148.88 12.3565 148.565 12.2727 148.201 12.2727C147.801 12.2727 147.454 12.3722 147.161 12.571C146.872 12.767 146.649 13.0227 146.492 13.3381C146.336 13.6534 146.258 13.9915 146.258 14.3523V14.9318C146.258 15.4261 146.343 15.8452 146.514 16.1889C146.687 16.5298 146.927 16.7898 147.234 16.9688C147.541 17.1449 147.897 17.233 148.303 17.233C148.568 17.233 148.806 17.196 149.019 17.1222C149.235 17.0455 149.421 16.9318 149.578 16.7812C149.734 16.6278 149.855 16.4375 149.94 16.2102L150.911 16.483C150.809 16.8125 150.637 17.1023 150.396 17.3523C150.154 17.5994 149.856 17.7926 149.501 17.9318C149.146 18.0682 148.747 18.1364 148.303 18.1364Z" fill="white"/>
<path d="M54.6798 43H52.5832L57.2941 29.9091H59.5761L64.287 43H62.1904L58.4894 32.2869H58.3872L54.6798 43ZM55.0313 37.8736H61.8325V39.5355H55.0313V37.8736ZM66.0241 46.6818V33.1818H67.8905V34.7734H68.0503C68.1611 34.5689 68.3209 34.3324 68.5297 34.0639C68.7385 33.7955 69.0283 33.5611 69.3991 33.3608C69.7698 33.1562 70.2599 33.054 70.8692 33.054C71.6618 33.054 72.3692 33.2543 72.9914 33.6548C73.6135 34.0554 74.1015 34.6328 74.4552 35.3871C74.8131 36.1413 74.9921 37.049 74.9921 38.1101C74.9921 39.1712 74.8153 40.081 74.4616 40.8395C74.1079 41.5937 73.6221 42.1754 73.0042 42.5845C72.3863 42.9893 71.681 43.1918 70.8884 43.1918C70.2918 43.1918 69.8039 43.0916 69.4246 42.8913C69.0496 42.6911 68.7556 42.4567 68.5425 42.1882C68.3295 41.9197 68.1654 41.6811 68.0503 41.4723H67.9353V46.6818H66.0241ZM67.8969 38.0909C67.8969 38.7812 67.9971 39.3864 68.1974 39.9062C68.3976 40.4261 68.6874 40.8331 69.0667 41.1271C69.4459 41.4169 69.9104 41.5618 70.4601 41.5618C71.0312 41.5618 71.5084 41.4105 71.892 41.108C72.2755 40.8011 72.5653 40.3857 72.7613 39.8615C72.9616 39.3374 73.0617 38.7472 73.0617 38.0909C73.0617 37.4432 72.9637 36.8615 72.7677 36.3459C72.5759 35.8303 72.2861 35.4233 71.8983 35.125C71.5148 34.8267 71.0354 34.6776 70.4601 34.6776C69.9062 34.6776 69.4374 34.8203 69.0539 35.1058C68.6746 35.3913 68.387 35.7898 68.191 36.3011C67.9949 36.8125 67.8969 37.4091 67.8969 38.0909ZM77.1334 46.6818V33.1818H78.9999V34.7734H79.1597C79.2705 34.5689 79.4303 34.3324 79.6391 34.0639C79.8479 33.7955 80.1377 33.5611 80.5084 33.3608C80.8792 33.1562 81.3692 33.054 81.9786 33.054C82.7712 33.054 83.4786 33.2543 84.1008 33.6548C84.7229 34.0554 85.2108 34.6328 85.5645 35.3871C85.9225 36.1413 86.1015 37.049 86.1015 38.1101C86.1015 39.1712 85.9246 40.081 85.5709 40.8395C85.2172 41.5937 84.7314 42.1754 84.1135 42.5845C83.4957 42.9893 82.7904 43.1918 81.9978 43.1918C81.4012 43.1918 80.9133 43.0916 80.534 42.8913C80.159 42.6911 79.865 42.4567 79.6519 42.1882C79.4388 41.9197 79.2748 41.6811 79.1597 41.4723H79.0447V46.6818H77.1334ZM79.0063 38.0909C79.0063 38.7812 79.1064 39.3864 79.3067 39.9062C79.507 40.4261 79.7968 40.8331 80.176 41.1271C80.5553 41.4169 81.0198 41.5618 81.5695 41.5618C82.1405 41.5618 82.6178 41.4105 83.0013 41.108C83.3849 40.8011 83.6746 40.3857 83.8707 39.8615C84.0709 39.3374 84.1711 38.7472 84.1711 38.0909C84.1711 37.4432 84.0731 36.8615 83.877 36.3459C83.6853 35.8303 83.3955 35.4233 83.0077 35.125C82.6242 34.8267 82.1448 34.6776 81.5695 34.6776C81.0155 34.6776 80.5468 34.8203 80.1633 35.1058C79.784 35.3913 79.4964 35.7898 79.3003 36.3011C79.1043 36.8125 79.0063 37.4091 79.0063 38.0909ZM100.3 33.348C100.232 32.7429 99.9504 32.2741 99.4561 31.9418C98.9617 31.6051 98.3396 31.4368 97.5896 31.4368C97.0526 31.4368 96.5882 31.522 96.1961 31.6925C95.8041 31.8587 95.4994 32.0888 95.282 32.3828C95.069 32.6726 94.9624 33.0028 94.9624 33.3736C94.9624 33.6847 95.0349 33.9531 95.1798 34.179C95.3289 34.4048 95.5228 34.5945 95.7615 34.7479C96.0044 34.897 96.2643 35.0227 96.5413 35.125C96.8183 35.223 97.0846 35.304 97.3403 35.3679L98.6187 35.7003C99.0363 35.8026 99.4646 35.9411 99.9035 36.1158C100.342 36.2905 100.749 36.5206 101.124 36.8061C101.499 37.0916 101.802 37.4453 102.032 37.8672C102.266 38.2891 102.384 38.794 102.384 39.3821C102.384 40.1236 102.192 40.782 101.808 41.3572C101.429 41.9325 100.877 42.3864 100.153 42.7188C99.4326 43.0511 98.5612 43.2173 97.5384 43.2173C96.5583 43.2173 95.7103 43.0618 94.9944 42.7507C94.2785 42.4396 93.7181 41.9986 93.3133 41.4276C92.9085 40.8523 92.6847 40.1705 92.6421 39.3821H94.6237C94.662 39.8551 94.8154 40.2493 95.0839 40.5646C95.3566 40.8757 95.7039 41.108 96.1258 41.2614C96.5519 41.4105 97.0186 41.4851 97.5257 41.4851C98.0839 41.4851 98.5803 41.3977 99.015 41.223C99.4539 41.044 99.7991 40.7969 100.051 40.4815C100.302 40.1619 100.428 39.7891 100.428 39.3629C100.428 38.9751 100.317 38.6577 100.095 38.4105C99.8779 38.1634 99.5818 37.9588 99.2068 37.7969C98.836 37.6349 98.4163 37.4922 97.9475 37.3686L96.4007 36.9467C95.3524 36.6612 94.5214 36.2415 93.9078 35.6875C93.2984 35.1335 92.9937 34.4006 92.9937 33.4886C92.9937 32.7344 93.1982 32.076 93.6073 31.5135C94.0164 30.951 94.5704 30.5142 95.2693 30.2031C95.9681 29.8878 96.7565 29.7301 97.6343 29.7301C98.5207 29.7301 99.3026 29.8857 99.9802 30.1967C100.662 30.5078 101.199 30.9361 101.591 31.4815C101.983 32.0227 102.188 32.6449 102.205 33.348H100.3ZM109.174 33.1818V34.7159H103.811V33.1818H109.174ZM105.249 30.8295H107.16V40.1172C107.16 40.4879 107.215 40.767 107.326 40.9545C107.437 41.1378 107.58 41.2635 107.755 41.3317C107.934 41.3956 108.127 41.4276 108.336 41.4276C108.49 41.4276 108.624 41.4169 108.739 41.3956C108.854 41.3743 108.943 41.3572 109.007 41.3445L109.353 42.9233C109.242 42.9659 109.084 43.0085 108.88 43.0511C108.675 43.098 108.419 43.1236 108.112 43.1278C107.61 43.1364 107.141 43.0469 106.706 42.8594C106.272 42.6719 105.92 42.3821 105.652 41.9901C105.383 41.598 105.249 41.1058 105.249 40.5135V30.8295ZM115.318 43.1982C114.397 43.1982 113.594 42.9872 112.908 42.5653C112.222 42.1435 111.689 41.5533 111.31 40.7947C110.931 40.0362 110.741 39.1499 110.741 38.1357C110.741 37.1172 110.931 36.2266 111.31 35.4638C111.689 34.701 112.222 34.1087 112.908 33.6868C113.594 33.2649 114.397 33.054 115.318 33.054C116.238 33.054 117.042 33.2649 117.728 33.6868C118.414 34.1087 118.946 34.701 119.326 35.4638C119.705 36.2266 119.895 37.1172 119.895 38.1357C119.895 39.1499 119.705 40.0362 119.326 40.7947C118.946 41.5533 118.414 42.1435 117.728 42.5653C117.042 42.9872 116.238 43.1982 115.318 43.1982ZM115.324 41.5938C115.921 41.5938 116.415 41.4361 116.807 41.1207C117.199 40.8054 117.489 40.3857 117.677 39.8615C117.868 39.3374 117.964 38.7599 117.964 38.1293C117.964 37.5028 117.868 36.9276 117.677 36.4034C117.489 35.875 117.199 35.451 116.807 35.1314C116.415 34.8118 115.921 34.652 115.324 34.652C114.723 34.652 114.225 34.8118 113.829 35.1314C113.437 35.451 113.145 35.875 112.953 36.4034C112.765 36.9276 112.672 37.5028 112.672 38.1293C112.672 38.7599 112.765 39.3374 112.953 39.8615C113.145 40.3857 113.437 40.8054 113.829 41.1207C114.225 41.4361 114.723 41.5938 115.324 41.5938ZM122.028 43V33.1818H123.875V34.7415H123.978C124.157 34.2131 124.472 33.7976 124.924 33.495C125.38 33.1882 125.895 33.0348 126.47 33.0348C126.59 33.0348 126.73 33.0391 126.892 33.0476C127.059 33.0561 127.188 33.0668 127.282 33.0795V34.9077C127.206 34.8864 127.069 34.8629 126.873 34.8374C126.677 34.8075 126.481 34.7926 126.285 34.7926C125.833 34.7926 125.431 34.8885 125.077 35.0803C124.728 35.2678 124.451 35.5298 124.246 35.8665C124.041 36.1989 123.939 36.5781 123.939 37.0043V43H122.028ZM132.816 43.1982C131.849 43.1982 131.016 42.9915 130.317 42.5781C129.622 42.1605 129.085 41.5746 128.706 40.8203C128.331 40.0618 128.144 39.1733 128.144 38.1548C128.144 37.1491 128.331 36.2628 128.706 35.4957C129.085 34.7287 129.614 34.13 130.291 33.6996C130.973 33.2692 131.77 33.054 132.682 33.054C133.236 33.054 133.773 33.1456 134.293 33.3288C134.813 33.5121 135.279 33.7997 135.693 34.1918C136.106 34.5838 136.432 35.093 136.671 35.7195C136.909 36.3416 137.028 37.098 137.028 37.9886V38.6662H129.224V37.2344H135.156C135.156 36.7315 135.053 36.2862 134.849 35.8984C134.644 35.5064 134.357 35.1974 133.986 34.9716C133.619 34.7457 133.189 34.6328 132.695 34.6328C132.158 34.6328 131.689 34.7649 131.288 35.0291C130.892 35.2891 130.585 35.63 130.368 36.0518C130.155 36.4695 130.048 36.9233 130.048 37.4134V38.532C130.048 39.1882 130.163 39.7464 130.394 40.2067C130.628 40.6669 130.954 41.0185 131.372 41.2614C131.789 41.5 132.277 41.6193 132.835 41.6193C133.198 41.6193 133.528 41.5682 133.826 41.4659C134.124 41.3594 134.382 41.2017 134.6 40.9929C134.817 40.7841 134.983 40.5263 135.098 40.2195L136.907 40.5455C136.762 41.0781 136.502 41.5447 136.127 41.9453C135.756 42.3416 135.29 42.6506 134.727 42.8722C134.169 43.0895 133.532 43.1982 132.816 43.1982Z" fill="white"/>
</svg>
