<svg width="52" height="52" viewBox="0 0 52 52" fill="none" xmlns="http://www.w3.org/2000/svg">
<g filter="url(#filter0_d_6592_32206)">
<rect x="2" y="1" width="48" height="48" rx="10" fill="white"/>
<rect x="2.5" y="1.5" width="47" height="47" rx="9.5" stroke="#EAECF0"/>
<path fill-rule="evenodd" clip-rule="evenodd" d="M34.5282 23.3737C34.1582 22.7317 33.4782 22.5207 32.8292 22.4297C32.1762 22.3387 31.3012 22.3387 30.2432 22.3387H30.1832C29.5532 22.3387 29.1402 22.3317 28.8402 22.2907C28.5692 22.2527 28.4832 22.1967 28.4462 22.1637C28.4192 22.1357 28.3712 22.0707 28.3382 21.8337C28.2992 21.5537 28.2982 21.1707 28.2982 20.5567V20.1827C28.2982 18.5947 28.2982 17.3227 28.1752 16.4167C28.0612 15.5657 27.7882 14.6097 26.8442 14.3197C25.9162 14.0357 25.1382 14.6457 24.5342 15.2737C23.8892 15.9437 23.1242 16.9787 22.1662 18.2747L19.0292 22.5197C18.4192 23.3447 17.9092 24.0337 17.6072 24.6027C17.3032 25.1727 17.0822 25.8507 17.4192 26.5267V26.5287L17.4232 26.5367L17.4272 26.5437L17.4312 26.5517L17.4362 26.5597L17.4402 26.5677L17.4442 26.5757L17.4492 26.5837L17.4532 26.5907L17.4542 26.5927C17.8222 27.2297 18.4982 27.4527 19.1532 27.5527C19.8272 27.6547 20.7272 27.6617 21.8182 27.6617C22.4552 27.6617 22.8602 27.6627 23.1582 27.7017C23.4222 27.7347 23.5012 27.7867 23.5342 27.8157C23.5642 27.8477 23.6172 27.9207 23.6542 28.1657C23.6962 28.4467 23.7032 28.8357 23.7032 29.4427V29.8177C23.7032 31.4047 23.7032 32.6777 23.8252 33.5837C23.9402 34.4337 24.2122 35.3907 25.1562 35.6797C26.0842 35.9637 26.8622 35.3547 27.4662 34.7257C28.1112 34.0557 28.8762 33.0217 29.8342 31.7247L32.9342 27.5317C33.5642 26.6777 34.0842 25.9647 34.3892 25.3717C34.6892 24.7917 34.8982 24.1097 34.5642 23.4397L34.5622 23.4377L34.5592 23.4297L34.5552 23.4217L34.5512 23.4147L34.5472 23.4057L34.5422 23.3977L34.5382 23.3907L34.5332 23.3827L34.5292 23.3757L34.5282 23.3737ZM25.6152 16.3137C25.0462 16.9037 24.3392 17.8587 23.3352 19.2167L20.2732 23.3597C19.6152 24.2497 19.1752 24.8487 18.9312 25.3077C18.8112 25.5307 18.7672 25.6717 18.7542 25.7577C18.7462 25.8107 18.7512 25.8337 18.7572 25.8497C18.7822 25.8847 18.8872 25.9937 19.3792 26.0697C19.9172 26.1517 20.6902 26.1617 21.8182 26.1617H21.8642C22.4412 26.1617 22.9442 26.1617 23.3482 26.2127C23.7812 26.2687 24.2122 26.3937 24.5682 26.7287L24.5742 26.7347L24.5802 26.7397C24.9302 27.0837 25.0722 27.5097 25.1372 27.9427C25.1992 28.3567 25.2032 28.8657 25.2032 29.4427V29.7527C25.2032 31.4197 25.2042 32.5887 25.3112 33.3827C25.3652 33.7787 25.4362 34.0107 25.5052 34.1397C25.5562 34.2367 25.5862 34.2437 25.5952 34.2457H25.5972C25.6072 34.2497 25.6452 34.2627 25.7582 34.2057C25.9002 34.1337 26.1032 33.9797 26.3862 33.6857C26.9542 33.0957 27.6622 32.1407 28.6662 30.7827L31.7272 26.6397C32.3812 25.7547 32.8172 25.1477 33.0572 24.6837C33.2612 24.2867 33.2382 24.1527 33.2252 24.1167C33.2022 24.0837 33.1022 23.9827 32.6222 23.9147C32.0852 23.8397 31.3162 23.8387 30.1822 23.8387C29.5802 23.8387 29.0572 23.8347 28.6342 23.7757C28.1972 23.7157 27.7652 23.5837 27.4122 23.2517L27.4062 23.2457L27.4012 23.2407C27.0482 22.8937 26.9112 22.4687 26.8522 22.0387C26.7972 21.6447 26.7982 21.1557 26.7982 20.6047V20.2467C26.7982 18.5797 26.7962 17.4107 26.6882 16.6167C26.6362 16.2217 26.5642 15.9897 26.4952 15.8597C26.4442 15.7627 26.4152 15.7567 26.4062 15.7547H26.4042L26.4032 15.7537C26.3932 15.7497 26.3562 15.7377 26.2422 15.7937C26.1002 15.8657 25.8982 16.0197 25.6152 16.3137Z" fill="#454545"/>
</g>
<defs>
<filter id="filter0_d_6592_32206" x="0" y="0" width="52" height="52" filterUnits="userSpaceOnUse" color-interpolation-filters="sRGB">
<feFlood flood-opacity="0" result="BackgroundImageFix"/>
<feColorMatrix in="SourceAlpha" type="matrix" values="0 0 0 0 0 0 0 0 0 0 0 0 0 0 0 0 0 0 127 0" result="hardAlpha"/>
<feOffset dy="1"/>
<feGaussianBlur stdDeviation="1"/>
<feColorMatrix type="matrix" values="0 0 0 0 0.0627451 0 0 0 0 0.0941176 0 0 0 0 0.156863 0 0 0 0.05 0"/>
<feBlend mode="normal" in2="BackgroundImageFix" result="effect1_dropShadow_6592_32206"/>
<feBlend mode="normal" in="SourceGraphic" in2="effect1_dropShadow_6592_32206" result="shape"/>
</filter>
</defs>
</svg>
