<svg width="52" height="52" viewBox="0 0 52 52" fill="none" xmlns="http://www.w3.org/2000/svg">
<g filter="url(#filter0_d_6592_32188)">
<rect x="2" y="1" width="48" height="48" rx="10" fill="white"/>
<rect x="2.5" y="1.5" width="47" height="47" rx="9.5" stroke="#EAECF0"/>
<path d="M24.1246 17.875C24.1246 17.3777 24.3221 16.9008 24.6738 16.5492C25.0254 16.1975 25.5023 16 25.9996 16C26.4969 16 26.9738 16.1975 27.3254 16.5492C27.6771 16.9008 27.8746 17.3777 27.8746 17.875C27.8746 18.3723 27.6771 18.8492 27.3254 19.2008C26.9738 19.5525 26.4969 19.75 25.9996 19.75C25.5023 19.75 25.0254 19.5525 24.6738 19.2008C24.3221 18.8492 24.1246 18.3723 24.1246 17.875ZM25.9996 14.5C25.4761 14.4999 24.9597 14.6216 24.4912 14.8555C24.0228 15.0893 23.6153 15.429 23.3007 15.8475C22.9862 16.2661 22.7734 16.7521 22.6791 17.267C22.5848 17.782 22.6116 18.3119 22.7574 18.8147L19.3051 17.626C18.7311 17.442 18.1079 17.4902 17.5691 17.7603C17.0302 18.0303 16.6186 18.5007 16.4224 19.0706C16.2262 19.6405 16.2611 20.2646 16.5195 20.8091C16.778 21.3536 17.2395 21.7752 17.8051 21.9835L22.2496 23.515V26.3335C22.2497 26.4476 22.2238 26.5602 22.1739 26.6627L19.4799 32.185C19.2158 32.7339 19.1798 33.365 19.3797 33.9404C19.5796 34.5157 19.9991 34.9886 20.5465 35.2556C21.094 35.5226 21.7249 35.562 22.3013 35.3652C22.8778 35.1685 23.3529 34.7515 23.6229 34.2055L25.9981 29.335L28.3734 34.2055C28.5026 34.483 28.6859 34.732 28.9124 34.9379C29.139 35.1438 29.4043 35.3025 29.6928 35.4048C29.9814 35.507 30.2874 35.5508 30.5931 35.5335C30.8987 35.5161 31.1979 35.4381 31.473 35.3039C31.7482 35.1696 31.9938 34.982 32.1956 34.7518C32.3975 34.5216 32.5514 34.2535 32.6485 33.9631C32.7455 33.6728 32.7838 33.366 32.7609 33.0607C32.7381 32.7554 32.6547 32.4577 32.5156 32.185L29.8254 26.6688C29.7755 26.5664 29.7496 26.4541 29.7496 26.3403V23.515L34.1949 21.9843C34.7604 21.7759 35.2219 21.3544 35.4804 20.8099C35.7389 20.2654 35.7738 19.6413 35.5776 19.0713C35.3814 18.5014 34.9698 18.031 34.4309 17.761C33.892 17.491 33.2688 17.4428 32.6949 17.6267L29.2419 18.8147C29.3876 18.3119 29.4144 17.782 29.3201 17.267C29.2258 16.7521 29.013 16.2661 28.6985 15.8475C28.384 15.429 27.9764 15.0893 27.508 14.8555C27.0396 14.6216 26.5232 14.4999 25.9996 14.5ZM17.7946 19.543C17.9386 19.123 18.3969 18.9002 18.8169 19.0443L24.5349 21.0138C25.484 21.3405 26.5152 21.3405 27.4644 21.0138L33.1824 19.0443C33.3841 18.9747 33.6053 18.9882 33.7971 19.0818C33.989 19.1753 34.1358 19.3412 34.2054 19.543C34.2749 19.7448 34.2614 19.9659 34.1678 20.1578C34.0743 20.3496 33.9084 20.4965 33.7066 20.566L29.0086 22.1838C28.7871 22.2599 28.595 22.4034 28.4589 22.594C28.3228 22.7847 28.2497 23.013 28.2496 23.2472V26.3403C28.2497 26.6821 28.3277 27.0193 28.4776 27.3265L31.1679 32.8428C31.2181 32.9381 31.2487 33.0426 31.2578 33.15C31.2669 33.2575 31.2543 33.3656 31.2208 33.4681C31.1873 33.5706 31.1335 33.6652 31.0627 33.7465C30.9919 33.8278 30.9055 33.8941 30.8086 33.9413C30.7117 33.9885 30.6063 34.0158 30.4986 34.0216C30.391 34.0273 30.2833 34.0113 30.1819 33.9746C30.0805 33.9379 29.9876 33.8812 29.9086 33.8079C29.8295 33.7345 29.766 33.6461 29.7219 33.5477L27.3459 28.678C26.7984 27.5545 25.1979 27.5545 24.6496 28.678L22.2744 33.5477C22.2302 33.6461 22.1667 33.7345 22.0877 33.8079C22.0086 33.8812 21.9157 33.9379 21.8143 33.9746C21.7129 34.0113 21.6052 34.0273 21.4976 34.0216C21.3899 34.0158 21.2845 33.9885 21.1876 33.9413C21.0907 33.8941 21.0043 33.8278 20.9335 33.7465C20.8627 33.6652 20.8089 33.5706 20.7754 33.4681C20.7419 33.3656 20.7293 33.2575 20.7384 33.15C20.7475 33.0426 20.7781 32.9381 20.8284 32.8428L23.5216 27.3197C23.6715 27.0126 23.7495 26.6753 23.7496 26.3335V23.2472C23.7495 23.013 23.6764 22.7847 23.5403 22.594C23.4043 22.4034 23.2121 22.2599 22.9906 22.1838L18.2926 20.566C18.1927 20.5316 18.1005 20.4778 18.0214 20.4078C17.9422 20.3377 17.8777 20.2528 17.8314 20.1578C17.785 20.0628 17.7579 19.9596 17.7515 19.8541C17.745 19.7486 17.7602 19.6429 17.7946 19.543Z" fill="#454545"/>
</g>
<defs>
<filter id="filter0_d_6592_32188" x="0" y="0" width="52" height="52" filterUnits="userSpaceOnUse" color-interpolation-filters="sRGB">
<feFlood flood-opacity="0" result="BackgroundImageFix"/>
<feColorMatrix in="SourceAlpha" type="matrix" values="0 0 0 0 0 0 0 0 0 0 0 0 0 0 0 0 0 0 127 0" result="hardAlpha"/>
<feOffset dy="1"/>
<feGaussianBlur stdDeviation="1"/>
<feColorMatrix type="matrix" values="0 0 0 0 0.0627451 0 0 0 0 0.0941176 0 0 0 0 0.156863 0 0 0 0.05 0"/>
<feBlend mode="normal" in2="BackgroundImageFix" result="effect1_dropShadow_6592_32188"/>
<feBlend mode="normal" in="SourceGraphic" in2="effect1_dropShadow_6592_32188" result="shape"/>
</filter>
</defs>
</svg>
