<svg width="52" height="52" viewBox="0 0 52 52" fill="none" xmlns="http://www.w3.org/2000/svg">
<g filter="url(#filter0_d_8042_12800)">
<rect x="2" y="1" width="48" height="48" rx="10" fill="#1D2B22"/>
<rect x="2.25" y="1.25" width="47.5" height="47.5" rx="9.75" stroke="#18A10A" stroke-width="0.5"/>
<path d="M31 25C31 27.7614 28.7614 30 26 30C23.2386 30 21 27.7614 21 25C21 22.2386 23.2386 20 26 20C28.7614 20 31 22.2386 31 25Z" stroke="#18A10A" stroke-width="1.5"/>
<path d="M26 15V16.5M26 33.5V35M33.0708 32.0713L32.0101 31.0106M19.9893 18.9893L18.9286 17.9286M36 25H34.5M17.5 25H16M33.0713 17.9287L32.0106 18.9894M19.9897 31.0107L18.9291 32.0714" stroke="#18A10A" stroke-width="1.5" stroke-linecap="round"/>
</g>
<defs>
<filter id="filter0_d_8042_12800" x="0" y="0" width="52" height="52" filterUnits="userSpaceOnUse" color-interpolation-filters="sRGB">
<feFlood flood-opacity="0" result="BackgroundImageFix"/>
<feColorMatrix in="SourceAlpha" type="matrix" values="0 0 0 0 0 0 0 0 0 0 0 0 0 0 0 0 0 0 127 0" result="hardAlpha"/>
<feOffset dy="1"/>
<feGaussianBlur stdDeviation="1"/>
<feColorMatrix type="matrix" values="0 0 0 0 0.0627451 0 0 0 0 0.0941176 0 0 0 0 0.156863 0 0 0 0.05 0"/>
<feBlend mode="normal" in2="BackgroundImageFix" result="effect1_dropShadow_8042_12800"/>
<feBlend mode="normal" in="SourceGraphic" in2="effect1_dropShadow_8042_12800" result="shape"/>
</filter>
</defs>
</svg>
