<svg width="52" height="52" viewBox="0 0 52 52" fill="none" xmlns="http://www.w3.org/2000/svg">
<g filter="url(#filter0_d_8042_12812)">
<rect x="2" y="1" width="48" height="48" rx="10" fill="#1D2B22"/>
<rect x="2.25" y="1.25" width="47.5" height="47.5" rx="9.75" stroke="#18A10A" stroke-width="0.5"/>
<path d="M27 24C27 21.7909 25.2091 20 23 20C20.7909 20 19 21.7909 19 24C19 26.2091 20.7909 28 23 28C25.2091 28 27 26.2091 27 24Z" stroke="#18A10A" stroke-width="1.5" stroke-linecap="round" stroke-linejoin="round"/>
<path d="M25.0386 20.5577C25.0131 20.3755 25 20.1893 25 20C25 17.7909 26.7909 16 29 16C31.2091 16 33 17.7909 33 20C33 22.2091 31.2091 24 29 24C28.2554 24 27.5584 23.7966 26.9614 23.4423" stroke="#18A10A" stroke-width="1.5" stroke-linecap="round" stroke-linejoin="round"/>
<path d="M29 34C29 30.6863 26.3137 28 23 28C19.6863 28 17 30.6863 17 34" stroke="#18A10A" stroke-width="1.5" stroke-linecap="round" stroke-linejoin="round"/>
<path d="M35 30C35 26.6863 32.3137 24 29 24" stroke="#18A10A" stroke-width="1.5" stroke-linecap="round" stroke-linejoin="round"/>
</g>
<defs>
<filter id="filter0_d_8042_12812" x="0" y="0" width="52" height="52" filterUnits="userSpaceOnUse" color-interpolation-filters="sRGB">
<feFlood flood-opacity="0" result="BackgroundImageFix"/>
<feColorMatrix in="SourceAlpha" type="matrix" values="0 0 0 0 0 0 0 0 0 0 0 0 0 0 0 0 0 0 127 0" result="hardAlpha"/>
<feOffset dy="1"/>
<feGaussianBlur stdDeviation="1"/>
<feColorMatrix type="matrix" values="0 0 0 0 0.0627451 0 0 0 0 0.0941176 0 0 0 0 0.156863 0 0 0 0.05 0"/>
<feBlend mode="normal" in2="BackgroundImageFix" result="effect1_dropShadow_8042_12812"/>
<feBlend mode="normal" in="SourceGraphic" in2="effect1_dropShadow_8042_12812" result="shape"/>
</filter>
</defs>
</svg>
