<svg width="52" height="52" viewBox="0 0 52 52" fill="none" xmlns="http://www.w3.org/2000/svg">
<g filter="url(#filter0_d_8048_13589)">
<rect x="2" y="1" width="48" height="48" rx="10" fill="#1D2B22"/>
<rect x="2.25" y="1.25" width="47.5" height="47.5" rx="9.75" stroke="#18A10A" stroke-width="0.5"/>
<path d="M16 24C16 20.7002 16 19.0502 17.0251 18.0251C18.0503 17 19.7002 17 23 17H24C27.2998 17 28.9497 17 29.9749 18.0251C31 19.0502 31 20.7002 31 24V26C31 29.2998 31 30.9497 29.9749 31.9749C28.9497 33 27.2998 33 24 33H23C19.7002 33 18.0503 33 17.0251 31.9749C16 30.9497 16 29.2998 16 26V24Z" stroke="#18A10A" stroke-width="1.5"/>
<path d="M31 21.9059L31.1259 21.802C33.2417 20.0562 34.2996 19.1834 35.1498 19.6048C36 20.0263 36 21.4236 36 24.2181V25.7819C36 28.5765 36 29.9737 35.1498 30.3952C34.2996 30.8166 33.2417 29.9438 31.1259 28.198L31 28.0941" stroke="#18A10A" stroke-width="1.5" stroke-linecap="round"/>
<path d="M25.5 24C26.3284 24 27 23.3284 27 22.5C27 21.6716 26.3284 21 25.5 21C24.6716 21 24 21.6716 24 22.5C24 23.3284 24.6716 24 25.5 24Z" stroke="#18A10A" stroke-width="1.5"/>
</g>
<defs>
<filter id="filter0_d_8048_13589" x="0" y="0" width="52" height="52" filterUnits="userSpaceOnUse" color-interpolation-filters="sRGB">
<feFlood flood-opacity="0" result="BackgroundImageFix"/>
<feColorMatrix in="SourceAlpha" type="matrix" values="0 0 0 0 0 0 0 0 0 0 0 0 0 0 0 0 0 0 127 0" result="hardAlpha"/>
<feOffset dy="1"/>
<feGaussianBlur stdDeviation="1"/>
<feColorMatrix type="matrix" values="0 0 0 0 0.0627451 0 0 0 0 0.0941176 0 0 0 0 0.156863 0 0 0 0.05 0"/>
<feBlend mode="normal" in2="BackgroundImageFix" result="effect1_dropShadow_8048_13589"/>
<feBlend mode="normal" in="SourceGraphic" in2="effect1_dropShadow_8048_13589" result="shape"/>
</filter>
</defs>
</svg>
